<svg xmlns="http://www.w3.org/2000/svg" width="17.285" height="14.958" viewBox="0 0 17.285 14.958">
  <path id="パス_8953" data-name="パス 8953" d="M416.943,262.8l-5.836-5.836a1.546,1.546,0,0,0-2.109-.115,1.489,1.489,0,0,0-.058,2.162l2.645,2.646a.474.474,0,0,1-.336.809h-9.539a1.547,1.547,0,0,0-1.572,1.411,1.49,1.49,0,0,0,1.487,1.57h9.624a.474.474,0,0,1,.336.809L409,268.845a1.547,1.547,0,0,0-.115,2.108,1.49,1.49,0,0,0,2.162.058l5.9-5.9A1.636,1.636,0,0,0,416.943,262.8Z" transform="translate(-400.136 -256.489)" fill="#444"/>
</svg>
