<svg id="グループ_16447" data-name="グループ 16447" xmlns="http://www.w3.org/2000/svg" xmlns:xlink="http://www.w3.org/1999/xlink" width="22.243" height="22.243" viewBox="0 0 22.243 22.243">
  <defs>
    <clipPath id="clip-path">
      <rect id="長方形_28469" data-name="長方形 28469" width="22.243" height="22.243" fill="#444"/>
    </clipPath>
  </defs>
  <g id="グループ_16446" data-name="グループ 16446" clip-path="url(#clip-path)">
    <path id="パス_905" data-name="パス 905" d="M11.12,2c2.969,0,3.321.011,4.494.065a6.153,6.153,0,0,1,2.065.383,3.446,3.446,0,0,1,1.279.832,3.446,3.446,0,0,1,.832,1.279,6.154,6.154,0,0,1,.383,2.065c.053,1.173.065,1.524.065,4.494s-.011,3.321-.065,4.494a6.154,6.154,0,0,1-.383,2.065,3.683,3.683,0,0,1-2.111,2.111,6.153,6.153,0,0,1-2.065.383c-1.172.054-1.524.065-4.494.065s-3.321-.011-4.494-.065a6.154,6.154,0,0,1-2.065-.383,3.447,3.447,0,0,1-1.279-.832,3.446,3.446,0,0,1-.832-1.279,6.155,6.155,0,0,1-.383-2.065C2.014,14.443,2,14.091,2,11.121s.011-3.321.065-4.494a6.155,6.155,0,0,1,.383-2.065,3.446,3.446,0,0,1,.832-1.279,3.447,3.447,0,0,1,1.279-.832,6.153,6.153,0,0,1,2.065-.383C7.8,2.015,8.151,2,11.12,2m0-2C8.1,0,7.721.013,6.535.067a8.164,8.164,0,0,0-2.7.517,5.452,5.452,0,0,0-1.97,1.283A5.451,5.451,0,0,0,.583,3.836a8.163,8.163,0,0,0-.517,2.7C.012,7.722,0,8.1,0,11.121s.013,3.4.067,4.585a8.163,8.163,0,0,0,.517,2.7,5.451,5.451,0,0,0,1.283,1.97,5.452,5.452,0,0,0,1.97,1.283,8.164,8.164,0,0,0,2.7.517c1.186.054,1.565.067,4.585.067s3.4-.013,4.585-.067a8.163,8.163,0,0,0,2.7-.517,5.687,5.687,0,0,0,3.253-3.253,8.163,8.163,0,0,0,.517-2.7c.054-1.186.067-1.565.067-4.585s-.013-3.4-.067-4.585a8.163,8.163,0,0,0-.517-2.7,5.452,5.452,0,0,0-1.283-1.97A5.452,5.452,0,0,0,18.405.584a8.163,8.163,0,0,0-2.7-.517C14.52.013,14.141,0,11.12,0" transform="translate(0.001 0)" fill="#444"/>
    <path id="パス_906" data-name="パス 906" d="M128.266,122.556a5.711,5.711,0,1,0,5.711,5.711,5.711,5.711,0,0,0-5.711-5.711m0,9.418a3.707,3.707,0,1,1,3.707-3.707,3.707,3.707,0,0,1-3.707,3.707" transform="translate(-117.145 -117.146)" fill="#444"/>
    <path id="パス_907" data-name="パス 907" d="M358.835,88.55a1.335,1.335,0,1,1-1.335-1.335,1.334,1.334,0,0,1,1.335,1.335" transform="translate(-340.443 -83.365)" fill="#444"/>
  </g>
</svg>
