<svg xmlns="http://www.w3.org/2000/svg" width="13.382" height="11.58" viewBox="0 0 13.382 11.58">
  <path id="パス_8954" data-name="パス 8954" d="M413.148,261.377l-4.519-4.518A1.2,1.2,0,0,0,407,256.77a1.153,1.153,0,0,0-.045,1.674L409,260.492a.367.367,0,0,1-.26.626h-7.385a1.2,1.2,0,0,0-1.217,1.092,1.154,1.154,0,0,0,1.151,1.216h7.45a.367.367,0,0,1,.26.626l-2,2a1.2,1.2,0,0,0-.089,1.632,1.154,1.154,0,0,0,1.674.045l4.565-4.564A1.266,1.266,0,0,0,413.148,261.377Z" transform="translate(413.519 268.07) rotate(180)" fill="#e71a25"/>
</svg>
