<svg xmlns="http://www.w3.org/2000/svg" width="135.289" height="23.884" viewBox="0 0 135.289 23.884">
  <g id="グループ_71855" data-name="グループ 71855" transform="translate(-93.834 -277.24)">
    <g id="グループ_71856" data-name="グループ 71856" transform="translate(93.834 277.24)">
      <g id="グループ_71847" data-name="グループ 71847" transform="translate(27.2 1.676)">
        <path id="パス_8887" data-name="パス 8887" d="M225.944,289.7v-3.853h1.613v.3h-1.31V289.7Z" transform="translate(-225.944 -285.748)" fill="#fff"/>
        <path id="パス_8888" data-name="パス 8888" d="M237.25,288.545q-.3.3-.512.475a5.171,5.171,0,0,1-.873.57,3.51,3.51,0,0,1-.4.19q-.247.095-.114-.076a4.967,4.967,0,0,0,1.082-.949,4.408,4.408,0,0,0,.626-.968h-1.67l-.076-.133h1.936V285.66l.664.076q.189.076.038.266l-.133.095v1.556h1.025l.361-.436.437.4q.114.133-.038.171h-1.727a3.007,3.007,0,0,0,.816.93,3.967,3.967,0,0,0,1.158.608q-.228.152-.323.228a.828.828,0,0,0-.228.323,3.366,3.366,0,0,1-1.158-1.158,3.93,3.93,0,0,1-.323-.7v1.841q0,.152-.436.19c-.089.013-.133-.038-.133-.152Zm-.683-1.158a.231.231,0,0,1-.285-.133,1.759,1.759,0,0,1-.076-.342.974.974,0,0,0-.323-.683q-.114-.114-.019-.114a1.529,1.529,0,0,1,.816.437.7.7,0,0,1,.171.512Q236.832,287.368,236.567,287.387Zm2.448-.778-.455.455q-.209.19-.475.437c-.063.063-.095.057-.095-.019a2.918,2.918,0,0,1,.171-.361,10.266,10.266,0,0,0,.475-1.158l.569.4q.171.133-.057.209Z" transform="translate(-233.378 -285.603)" fill="#fff"/>
        <path id="パス_8889" data-name="パス 8889" d="M260.678,286.1v.171q0,.133-.171.171a.671.671,0,0,1-.266.019.087.087,0,0,1-.057-.095V286.1h-1.253l-.076-.133h1.329v-.589l.531.057c.126.038.139.1.038.19l-.076.038v.3h.835v-.589l.588.076q.152.057.019.171l-.114.057v.285h.588l.323-.4.418.38q.114.114-.038.152h-1.291v.171a.128.128,0,0,1-.057.114,1.446,1.446,0,0,1-.266.076q-.171.038-.171-.114V286.1Zm.759,2.354a2.938,2.938,0,0,0,.74.418,6.279,6.279,0,0,0,1.234.266,1.558,1.558,0,0,0-.247.228.689.689,0,0,0-.152.361,4.243,4.243,0,0,1-.949-.494,3.74,3.74,0,0,1-.721-.683v1.063a.162.162,0,0,1-.114.171.812.812,0,0,1-.323.038.088.088,0,0,1-.057-.095v-.911a3.839,3.839,0,0,1-.607.437,4.134,4.134,0,0,1-.987.417c-.24.063-.323.05-.247-.038a3.691,3.691,0,0,0,1.481-1.177h-1.5l-.057-.133h1.917v-.418h-.8V288q0,.114-.152.152l-.133.038q-.209.057-.209-.114V286.35l.569.228h1.936l.19-.266.455.38q.114.114-.038.171l-.057.019v1.063a.127.127,0,0,1-.057.114.691.691,0,0,1-.209.057c-.152.026-.228-.006-.228-.095v-.114h-.778v.418h1.215l.361-.4.418.379q.114.114-.038.152Zm-1.386-1.291h.8v-.455h-.8Zm0,.607h.8V287.3h-.8Zm1.291-.607h.778v-.455h-.778Zm0,.133v.474h.778V287.3Z" transform="translate(-252.08 -285.382)" fill="#fff"/>
        <path id="パス_8890" data-name="パス 8890" d="M282.088,291.836v-.3h1.31v-3.568h.3v3.872Z" transform="translate(-270.528 -287.432)" fill="#fff"/>
        <path id="パス_8891" data-name="パス 8891" d="M306.883,287.837q-.209.1-.418.209t-.3.076a.748.748,0,0,1-.228-.171.805.805,0,0,1-.152-.19q-.076-.246.095-.342a.21.21,0,0,0,.019.095.248.248,0,0,0,.3.133,1.106,1.106,0,0,0,.171-.019q.342-.076.645-.133.095-.228.171-.475a4,4,0,0,0,.114-.455q0-.132-.342-.247a.455.455,0,0,1,.323-.114.51.51,0,0,1,.36.152.783.783,0,0,0,.152.114q.189.171.076.266a.476.476,0,0,0-.114.114q-.038.076-.228.588a1.249,1.249,0,0,1,.512.019.687.687,0,0,1,.4.436,1.424,1.424,0,0,1,.057.551,3.168,3.168,0,0,1-.38,1.424.7.7,0,0,1-.588.436c-.1,0-.165-.063-.19-.19a1.112,1.112,0,0,0-.057-.19q-.152-.171-.323-.342l-.095-.114q-.076-.095.095-.038a2.373,2.373,0,0,0,.379.171.209.209,0,0,0,.228-.019,1.194,1.194,0,0,0,.342-.721,2.554,2.554,0,0,0,.076-.93c-.026-.177-.095-.278-.209-.3a.584.584,0,0,0-.342.038l-.589,1.385q-.266.608-.342.8-.057.114-.152.285-.209.3-.418.076a.383.383,0,0,1,.019-.493,2.542,2.542,0,0,0,.19-.247q.152-.285.418-.835Q306.674,288.388,306.883,287.837Zm2.562.645a1.463,1.463,0,0,0-.19-.626,2.118,2.118,0,0,0-.455-.494l-.152-.114q-.171-.132.19-.019a3.087,3.087,0,0,1,.74.38,1.3,1.3,0,0,1,.588,1.025q0,.418-.209.475a.286.286,0,0,1-.3-.152.34.34,0,0,0-.19-.152,2.844,2.844,0,0,0-.607.038c-.1.013-.152.013-.152,0A3.863,3.863,0,0,1,309.446,288.483Z" transform="translate(-289.326 -286.034)" fill="#fff"/>
        <path id="パス_8892" data-name="パス 8892" d="M329.8,288.241a4.314,4.314,0,0,1,.627-.266,3.152,3.152,0,0,1,.8-.152,1.714,1.714,0,0,1,.816.152.9.9,0,0,1,.531.588.813.813,0,0,1-.247.854,2.1,2.1,0,0,1-1.082.456,3.191,3.191,0,0,1-1.006.095q-.114-.038.019-.057a4.35,4.35,0,0,0,.816-.19,1.426,1.426,0,0,0,.74-.475.826.826,0,0,0,.114-.74.728.728,0,0,0-.607-.494,1.13,1.13,0,0,0-.778.171,2.03,2.03,0,0,0-.342.247,3.294,3.294,0,0,0-.323.418q-.228.266-.455.057a.534.534,0,0,1-.152-.474q.019-.132.076-.4a3.252,3.252,0,0,0,.057-.664v-.133c-.013-.126-.019-.2-.019-.228a.186.186,0,0,1,.095-.171,2.256,2.256,0,0,1,.7-.285,4.656,4.656,0,0,0,.494-.133,1.251,1.251,0,0,1-.759-.323.98.98,0,0,1-.133-.228c-.051-.1-.063-.171-.038-.209.012.013.063.057.152.133a1.572,1.572,0,0,0,.626.171q.38.038.437.038a.507.507,0,0,1,.436.379q.076.266-.133.3a3.473,3.473,0,0,1-.494-.038,1.466,1.466,0,0,0-.588.038.917.917,0,0,0-.266.152q-.152.133-.076.19l.019.019a.7.7,0,0,1,.057.588q-.1.342-.114.456Z" transform="translate(-307.986 -285.603)" fill="#fff"/>
        <path id="パス_8893" data-name="パス 8893" d="M361.464,289.7v-3.853h1.613v.3h-1.31V289.7Z" transform="translate(-333.561 -285.748)" fill="#fff"/>
        <path id="パス_8894" data-name="パス 8894" d="M370.221,291.182v-.133h.057a.311.311,0,0,0,.228-.095.387.387,0,0,0,.095-.285v-2.449a.588.588,0,0,0-.095-.4.388.388,0,0,0-.285-.095V287.6h1.329a1.33,1.33,0,0,1,.949.266.857.857,0,0,1,.266.626.745.745,0,0,1-.209.551,1.11,1.11,0,0,1-.721.285,1.1,1.1,0,0,1,.759.266.891.891,0,0,1,.285.645.929.929,0,0,1-.228.683,1.141,1.141,0,0,1-.835.266Zm.911-1.955h.247a.862.862,0,0,0,.626-.19.719.719,0,0,0,.19-.532,1.02,1.02,0,0,0-.076-.38.536.536,0,0,0-.266-.3,1.258,1.258,0,0,0-.494-.076.2.2,0,0,0-.228.228Zm0,.152v1.348a.3.3,0,0,0,.057.209.37.37,0,0,0,.266.076.863.863,0,0,0,.626-.19.8.8,0,0,0,.19-.588.788.788,0,0,0-.854-.854Z" transform="translate(-340.515 -287.139)" fill="#fff"/>
        <path id="パス_8895" data-name="パス 8895" d="M387.518,289.816l-.076,1.367H384.88v-.152a.412.412,0,0,0,.3-.114.417.417,0,0,0,.095-.3v-2.449a.448.448,0,0,0-.095-.323.418.418,0,0,0-.3-.095V287.6h2.543l.038,1.234h-.133a2.42,2.42,0,0,0-.19-.626.68.68,0,0,0-.3-.342,1.266,1.266,0,0,0-.569-.114.557.557,0,0,0-.361.076.479.479,0,0,0-.095.342v1.063h.266a.483.483,0,0,0,.3-.133.976.976,0,0,0,.19-.645h.133v1.708h-.133a1.383,1.383,0,0,0-.057-.4.487.487,0,0,0-.38-.38h-.323v1.31a.339.339,0,0,0,.076.247.309.309,0,0,0,.228.076h.228a.821.821,0,0,0,.607-.228,1.331,1.331,0,0,0,.285-.456,2.128,2.128,0,0,0,.152-.512Z" transform="translate(-352.156 -287.139)" fill="#fff"/>
        <path id="パス_8896" data-name="パス 8896" d="M400.026,291.182h-1.594v-.152h.095a.437.437,0,0,0,.323-.114.524.524,0,0,0,.114-.38v-2.392a.386.386,0,0,0-.114-.285.589.589,0,0,0-.418-.114V287.6h1.594v.152a.622.622,0,0,0-.437.114.386.386,0,0,0-.095.285v2.43a.435.435,0,0,0,.114.323.569.569,0,0,0,.418.133Z" transform="translate(-362.918 -287.139)" fill="#fff"/>
        <path id="パス_8897" data-name="パス 8897" d="M408.242,291.182h-1.329v-.133a.439.439,0,0,0,.3-.076.416.416,0,0,0,.095-.3v-2.544q0-.36-.4-.4V287.6h1.329v.133a.416.416,0,0,0-.3.095.446.446,0,0,0-.095.323v1.424l1.025-1.329q.19-.285.076-.4a.465.465,0,0,0-.342-.114V287.6h1.234v.133a.641.641,0,0,0-.474.171,3.95,3.95,0,0,0-.285.323l-.494.664.949,1.727a.753.753,0,0,0,.531.436v.133H408.6v-.133a.437.437,0,0,0,.323-.114q.114-.114-.038-.38l-.664-1.234-.38.493v.835a.352.352,0,0,0,.4.4Z" transform="translate(-369.653 -287.139)" fill="#fff"/>
        <path id="パス_8898" data-name="パス 8898" d="M423.868,290.816h-1.006v-.133a.4.4,0,0,0,.285-.133,1.733,1.733,0,0,0,.247-.532l.835-2.885h.209l.949,3.132q.132.4.455.4v.152h-1.31v-.152h.057q.284,0,.285-.209a1.016,1.016,0,0,0-.057-.323l-.152-.456h-1.006l-.114.361a1.385,1.385,0,0,0-.076.361.233.233,0,0,0,.057.171.538.538,0,0,0,.342.114Zm.74-1.329-.455-1.594-.437,1.594Z" transform="translate(-382.318 -286.773)" fill="#fff"/>
        <path id="パス_8899" data-name="パス 8899" d="M438.166,291.836v-.3h1.31v-3.568h.3v3.872Z" transform="translate(-394.471 -287.432)" fill="#fff"/>
        <path id="パス_8900" data-name="パス 8900" d="M462.21,292.254a.619.619,0,0,0,.114.19q.133.114.3-.038.189-.171.626-.531a1.654,1.654,0,0,1,.493-.342.389.389,0,0,1,.342.133l.323.285a9.909,9.909,0,0,0,1.044.759l.664.437a1.974,1.974,0,0,0,.209.152.31.31,0,0,1,.076.228q.019.418-.285.361a1.007,1.007,0,0,1-.475-.3l-.342-.3q-.532-.474-1.272-1.253c-.114-.114-.2-.164-.266-.152q-.266.057-.683.835-.1.19-.209.38-.1.114-.38-.057a.828.828,0,0,1-.285-.228.538.538,0,0,1-.076-.3Q462.134,292.273,462.21,292.254Z" transform="translate(-413.504 -290.261)" fill="#fff"/>
      </g>
      <g id="グループ_71854" data-name="グループ 71854">
        <g id="グループ_71853" data-name="グループ 71853">
          <path id="パス_8901" data-name="パス 8901" d="M118.054,286.7h-3.96l3.726-9.461H94.081l3.725,9.461H93.834v4.961h4.216l-4.061,9.462h23.642l-4.022-9.462h4.445Z" transform="translate(-93.834 -277.24)" fill="#fff"/>
          <g id="グループ_71851" data-name="グループ 71851" transform="translate(0.699 9.994)">
            <g id="グループ_71848" data-name="グループ 71848" transform="translate(0 0.262)">
              <path id="パス_8902" data-name="パス 8902" d="M109.145,335.421h-2.607a.1.1,0,0,0-.1.1v1.571a.1.1,0,0,0,.1.1h2.724a.1.1,0,0,0,.1-.1v-1.421A.233.233,0,0,0,109.145,335.421Zm-.629,1.34a.1.1,0,0,1-.1.1h-.976a.1.1,0,0,1-.1-.1v-.872a.1.1,0,0,1,.1-.1h.976a.1.1,0,0,1,.1.1Z" transform="translate(-104.54 -333.698)" fill="#1a1311"/>
              <path id="パス_8903" data-name="パス 8903" d="M101.983,332.181h-4.65a.1.1,0,0,0-.1.1v.083a.106.106,0,0,0,.1.106h.517l-.549,2.039a.076.076,0,0,0,.076.1h.857a.145.145,0,0,0,.129-.1l.549-2.039h3.071a.106.106,0,0,0,.1-.106v-.083A.1.1,0,0,0,101.983,332.181Z" transform="translate(-97.23 -331.125)" fill="#1a1311"/>
              <path id="パス_8904" data-name="パス 8904" d="M102.086,327.514a.46.46,0,0,0-.92-.029h-1.05a.46.46,0,0,0-.918,0H98.15a.46.46,0,0,0-.92.029v.2a.1.1,0,0,0,.1.1h4.65a.1.1,0,0,0,.1-.1Z" transform="translate(-97.23 -327.053)" fill="#1a1311"/>
            </g>
            <g id="グループ_71849" data-name="グループ 71849" transform="translate(5.96 0.137)">
              <path id="パス_8905" data-name="パス 8905" d="M127.54,327.767a.093.093,0,0,0,.093-.093v-.144a.092.092,0,0,0-.093-.093h-.225V327.1a.381.381,0,1,0-.763,0v.331h-.283a.092.092,0,0,0-.093.093v.144a.093.093,0,0,0,.093.093h.283v1.83a.162.162,0,0,0,0,.042l-.291.093a.132.132,0,0,0-.088.118v.259a.064.064,0,0,0,.088.064l1.257-.389a.13.13,0,0,0,.088-.118v-.259a.064.064,0,0,0-.088-.064l-.207.064v-1.639Z" transform="translate(-126.177 -326.661)" fill="#1a1311"/>
              <path id="パス_8906" data-name="パス 8906" d="M137.258,326.444a.362.362,0,0,0-.358.309h-1.577a.352.352,0,0,0-.363-.309c-.369,0-.382.429-.382.48v.351a.092.092,0,0,0,.091.091h.578a.094.094,0,0,0,.094-.091v-.238h1.536v.238a.092.092,0,0,0,.091.091h.578a.092.092,0,0,0,.093-.091v-.351C137.639,326.873,137.65,326.444,137.258,326.444Z" transform="translate(-132.848 -326.444)" fill="#1a1311"/>
              <path id="パス_8907" data-name="パス 8907" d="M137.411,332.6a.093.093,0,0,0,.093-.093v-.166a.094.094,0,0,0-.093-.093H134.5a.1.1,0,0,0-.094.093v.166a.094.094,0,0,0,.094.093h.673l-.681.259a.146.146,0,0,0-.087.126v.19a.059.059,0,0,0,.087.059l1.087-.412v.279l-1.087.412a.147.147,0,0,0-.087.125v.192a.059.059,0,0,0,.087.059l1.087-.41v.272l-1.087.409a.155.155,0,0,0-.087.128v.258a.061.061,0,0,0,.087.062l1.087-.412v.35a.094.094,0,0,0,.093.092h.793a.094.094,0,0,0,.093-.092v-.37l.86.412a.054.054,0,0,0,.084-.055v-.473a.16.16,0,0,0-.084-.132l-.86-.411v-.11l.859-.351a.143.143,0,0,0,.085-.125v-.248a.058.058,0,0,0-.085-.058l-.859.35V332.6Z" transform="translate(-132.712 -331.049)" fill="#1a1311"/>
            </g>
            <g id="グループ_71850" data-name="グループ 71850" transform="translate(11.853 0.036)">
              <path id="パス_8908" data-name="パス 8908" d="M157.564,326.889h-1v-.228h1a.093.093,0,0,0,.093-.092s0-.184,0-.192a.417.417,0,0,0-.833-.035h-.167a.416.416,0,0,0-.83,0h-.166a.416.416,0,0,0-.413-.385.43.43,0,0,0-.433.419v.192a.093.093,0,0,0,.093.092h.909v.228H154.9a.093.093,0,0,0-.093.092v.1a.1.1,0,0,0,.093.093h.909v.214H154.9a.12.12,0,0,0-.106.108l0,.426a.093.093,0,0,0,.094.093h.669a.091.091,0,0,0,.09-.093v-.135h.161v.147a.091.091,0,0,0,.091.091h.567a.091.091,0,0,0,.093-.091v-.147h.17v.135a.092.092,0,0,0,.093.093h.667a.093.093,0,0,0,.094-.093v-.267a.249.249,0,0,0-.261-.267h-.763v-.214h1a.1.1,0,0,0,.093-.093v-.1A.093.093,0,0,0,157.564,326.889Z" transform="translate(-154.798 -325.957)" fill="#1a1311"/>
              <path id="パス_8909" data-name="パス 8909" d="M169.843,326.148a.354.354,0,0,0-.383.348v.965a.092.092,0,0,0,.093.1h.573a.093.093,0,0,0,.091-.1v-.9C170.22,326.553,170.217,326.148,169.843,326.148Z" transform="translate(-166.441 -326.109)" fill="#1a1311"/>
              <path id="パス_8910" data-name="パス 8910" d="M174.509,326.148a.354.354,0,0,0-.383.348v1.575a.092.092,0,0,0,.091.094h.573a.092.092,0,0,0,.093-.094v-1.506C174.885,326.553,174.881,326.148,174.509,326.148Z" transform="translate(-170.147 -326.109)" fill="#1a1311"/>
              <path id="パス_8911" data-name="パス 8911" d="M159.446,334.9h-.879v-.22c0-.015,0-.42-.376-.42a.356.356,0,0,0-.385.351v.289H154.9a.094.094,0,0,0-.094.091v.14a.094.094,0,0,0,.094.093h.448l-.529.929c-.024.044,0,.081.047.081h.659a.182.182,0,0,0,.141-.081l.415-.733.573.813h.862a.194.194,0,0,0,.143-.078l.521-.786.5.786a.192.192,0,0,0,.143.078h.622c.053,0,.07-.036.043-.078l-.594-.931h.549a.094.094,0,0,0,.093-.093v-.14A.093.093,0,0,0,159.446,334.9Zm-2.294.888-.4-.564h.729Z" transform="translate(-154.805 -332.552)" fill="#1a1311"/>
            </g>
            <path id="パス_8912" data-name="パス 8912" d="M188.131,326.473a.092.092,0,0,0,.093-.09v-.128a.092.092,0,0,0-.093-.091H187.1a.4.4,0,0,0-.432-.385.4.4,0,0,0-.413.385h-.943a.407.407,0,0,0-.415-.385.4.4,0,0,0-.429.385h-1.028a.092.092,0,0,0-.091.091v.128a.091.091,0,0,0,.091.09h1.028v.253h-.654a.094.094,0,0,0-.094.092v1.135a.094.094,0,0,0,.094.091h1.558v.278h-1.932a.094.094,0,0,0-.091.1v.123a.092.092,0,0,0,.091.093h.742l-.8.8c-.036.04-.024.068.028.068h.851a.3.3,0,0,0,.162-.061l.947-.8h0v.772a.094.094,0,0,0,.093.093h.694a.1.1,0,0,0,.094-.093v-.721l.885.752a.311.311,0,0,0,.164.061h.851c.052,0,.064-.029.029-.068l-.8-.8h.743a.092.092,0,0,0,.093-.093v-.123a.094.094,0,0,0-.093-.1h-1.873v-.278h1.524a.093.093,0,0,0,.091-.091v-.875a.317.317,0,0,0-.332-.352H187.1v-.253Zm-2.754,1.289h-.8v-.26h.8Zm0-.532h-.8V327h.8Zm.874-.5h-.927v-.253h.927Zm.771,1.036h-.763v-.26h.763Zm0-.532h-.763V327h.763Z" transform="translate(-165.622 -325.78)" fill="#1a1311"/>
          </g>
          <g id="グループ_71852" data-name="グループ 71852" transform="translate(1.628 0.969)">
            <path id="パス_8913" data-name="パス 8913" d="M108.29,286.262l2.993,7.6h12.293l2.994-7.6Zm9.214,2.325a3.312,3.312,0,0,1-2.543-1.185h5.084A3.309,3.309,0,0,1,117.5,288.587Z" transform="translate(-106.942 -285.373)" fill="#dc000c"/>
            <path id="パス_8914" data-name="パス 8914" d="M102.427,283.16l2.867,7.278h.243l-2.9-7.362-.357-.9H122.5l-.356.9-2.9,7.362h.246l2.867-7.278.416-1.058.061-.156H101.948l.062.156Z" transform="translate(-101.906 -281.946)" fill="#dc000c"/>
            <path id="パス_8915" data-name="パス 8915" d="M121.918,354.539l-3.084-7.255h-.248l3.122,7.343.392.919H102.087l.4-.919,3.151-7.343h-.246l-3.114,7.255-.462,1.078-.068.157h20.7l-.067-.157Z" transform="translate(-101.742 -333.832)" fill="#dc000c"/>
            <path id="パス_8916" data-name="パス 8916" d="M126.3,354.888l-3.233-7.6H111.552l-3.262,7.6Z" transform="translate(-106.942 -333.832)" fill="#dc000c"/>
          </g>
        </g>
      </g>
      <path id="パス_8918" data-name="パス 8918" d="M0,0H48.845" transform="translate(86.194 3.907)" fill="#fff" stroke="#fff" stroke-linecap="round" stroke-width="0.5"/>
      <path id="パス_8917" data-name="パス 8917" d="M220.844,312.746a1.166,1.166,0,0,1,1.147,1.119H224.6a1.148,1.148,0,0,1,2.295,0h2.618a1.148,1.148,0,1,1,2.295.078v.518a.267.267,0,0,1-.256.273h-11.6a.271.271,0,0,1-.262-.273v-.518a1.176,1.176,0,0,1,1.153-1.2m18.057-.323a.885.885,0,0,1,.908.791h3.938a.9.9,0,0,1,.891-.791c.98,0,.952,1.114.952,1.242v.908a.239.239,0,0,1-.234.234h-1.442a.234.234,0,0,1-.228-.234v-.613h-3.826v.613a.24.24,0,0,1-.239.234h-1.437a.235.235,0,0,1-.234-.234v-.908c0-.128.028-1.242.952-1.242m69.643-.028a.879.879,0,0,0-.93.718l-4.885.969a.2.2,0,0,0-.156.072.244.244,0,0,0-.072.173v1.047a.244.244,0,0,0,.072.172.2.2,0,0,0,.156.073l5.831-1.17c.061,0,5.831,1.17,5.831,1.17a.228.228,0,0,0,.161-.073.293.293,0,0,0,.061-.172v-1.047a.293.293,0,0,0-.061-.173.228.228,0,0,0-.161-.072l-4.974-.991a.856.856,0,0,0-.874-.7m-52.655-.134a.909.909,0,0,0-.952.9v2.5a.238.238,0,0,0,.234.245H256.6a.233.233,0,0,0,.228-.245v-2.323c.006-.033,0-1.081-.941-1.081m46.84,4.138a.2.2,0,0,0-.156.078.234.234,0,0,0-.072.173v.457a.247.247,0,0,0,.072.178.212.212,0,0,0,.156.067h11.646a.223.223,0,0,0,.156-.067.243.243,0,0,0,.067-.178v-.457a.23.23,0,0,0-.067-.173.213.213,0,0,0-.156-.078H302.728m-44.44-4.138a.9.9,0,0,0-.952.9v4.082a.236.236,0,0,0,.228.239H259a.237.237,0,0,0,.234-.239v-3.9c0-.033-.006-1.081-.941-1.081m-9.769-.095a1.052,1.052,0,0,1,1.036.992h.418a1.034,1.034,0,0,1,2.066,0h.418a1.048,1.048,0,0,1,1.036-.992,1.063,1.063,0,0,1,1.041,1.081l.006.5a.237.237,0,0,1-.234.239h-2.5v.591h2.5a.241.241,0,0,1,.234.245v.251a.233.233,0,0,1-.234.239h-2.5v.557h1.91a.632.632,0,0,1,.646.7v.691a.232.232,0,0,1-.228.239h-1.665a.237.237,0,0,1-.234-.239v-.345h-.429v.373a.237.237,0,0,1-.228.245h-1.409a.237.237,0,0,1-.228-.245v-.373h-.4v.345a.237.237,0,0,1-.234.239h-1.665a.236.236,0,0,1-.228-.239l-.006-1.108a.3.3,0,0,1,.262-.279h2.272v-.557h-2.272a.229.229,0,0,1-.229-.239v-.251a.237.237,0,0,1,.229-.245h2.272v-.591h-2.272a.232.232,0,0,1-.229-.239v-.5a1.091,1.091,0,0,1,1.075-1.081m46.635,3.882a.226.226,0,0,1,.161.067.236.236,0,0,1,.067.167v.735a.24.24,0,0,1-.067.173.227.227,0,0,1-.161.067h-1.749v2.423l1.749-.206a.21.21,0,0,1,.161.072.231.231,0,0,1,.067.173v.729a.237.237,0,0,1-.067.167.227.227,0,0,1-.161.067l-6.077.735a.19.19,0,0,1-.156-.072.219.219,0,0,1-.067-.167v-.73a.229.229,0,0,1,.223-.239l2.194-.267v-2.685h-2.194a.224.224,0,0,1-.156-.067.24.24,0,0,1-.067-.173v-.735a.236.236,0,0,1,.067-.167.223.223,0,0,1,.156-.067h6.077m-59.629-3.475a.976.976,0,0,1,.947,1v.858h.568a.232.232,0,0,1,.228.239v.373a.237.237,0,0,1-.228.245h-.568v4.244l.518-.173a.162.162,0,0,1,.089-.006.164.164,0,0,1,.134.178v.668a.353.353,0,0,1-.223.318l-3.13,1a.646.646,0,0,1-.089.011.167.167,0,0,1-.134-.178v-.669a.353.353,0,0,1,.223-.317l.724-.229-.011-.111v-4.74h-.707a.241.241,0,0,1-.228-.245v-.373a.236.236,0,0,1,.228-.239h.707v-.858a.98.98,0,0,1,.952-1m17.739,7.97.83-1.459h-1.821l.991,1.459m2.6-3.954a.912.912,0,0,0-.958.908v.746h-7.257a.236.236,0,0,0-.228.239v.362a.239.239,0,0,0,.228.24h1.12l-1.315,2.406a.126.126,0,0,0,.117.206h1.654a.438.438,0,0,0,.34-.206l1.041-1.9,1.431,2.105h2.144a.5.5,0,0,0,.362-.195l1.292-2.033,1.253,2.027a.464.464,0,0,0,.362.2H259c.128,0,.173-.089.106-.2l-1.487-2.412h1.37a.24.24,0,0,0,.234-.24v-.362a.237.237,0,0,0-.234-.239H256.79v-.562c.006-.033,0-1.092-.93-1.092m9.151-4.528a1.052,1.052,0,0,1,1.036,1h2.345a1.048,1.048,0,0,1,1.036-1,1.02,1.02,0,0,1,1.075,1h2.567a.237.237,0,0,1,.228.245v.323a.236.236,0,0,1-.228.239H270.5v.652h1.092a.81.81,0,0,1,.83.913v2.261a.241.241,0,0,1-.228.245h-3.8v.719h4.679a.239.239,0,0,1,.228.239v.329a.234.234,0,0,1-.228.234h-1.86l1.994,2.072c.089.095.061.167-.067.167h-2.128a.7.7,0,0,1-.406-.156l-2.211-1.949v1.866a.233.233,0,0,1-.234.239h-1.732a.232.232,0,0,1-.228-.239v-2h-.011l-2.356,2.083a.682.682,0,0,1-.407.156H261.3c-.128,0-.156-.072-.067-.167l1.994-2.072h-1.849a.234.234,0,0,1-.228-.234v-.329a.239.239,0,0,1,.228-.239H266.2v-.719H262.31a.243.243,0,0,1-.24-.245v-2.941a.24.24,0,0,1,.24-.234h1.626v-.652h-2.562a.236.236,0,0,1-.228-.239V313.3a.237.237,0,0,1,.228-.245h2.562a1.02,1.02,0,0,1,1.075-1m1.047,1.8v.652h2.317v-.652h-2.317m-1.855,1.37v.59H266.2v-.59H264.2m4.188,0v.59h1.91v-.59h-1.91m-4.188,1.292v.674H266.2v-.674H264.2m4.188,0v.674h1.91v-.674h-1.91m9.97,4.985a.185.185,0,0,1-.178.184h-1.565a.181.181,0,0,1-.178-.184V319.3l-1.164,1.47c-.072.095-.134.067-.134-.05V318.1a.712.712,0,0,1,.134-.384l1.164-1.476V315.18h-1.058a.262.262,0,0,1-.167-.067.291.291,0,0,1-.056-.173v-.468a.287.287,0,0,1,.056-.167.236.236,0,0,1,.167-.067h1.058v-.924a.965.965,0,1,1,1.927,0l-.006.924h.663a.224.224,0,0,1,.161.067.262.262,0,0,1,.067.167v.468a.265.265,0,0,1-.067.173.247.247,0,0,1-.161.067h-.663v.078l.757.952a.791.791,0,0,1,.128.39v2.618c0,.117-.061.139-.128.044l-.757-.952v3.2m-33.006-5.993a.237.237,0,0,1,.234.239v.434a.237.237,0,0,1-.234.24h-2.122v.958l2.139-.9a.115.115,0,0,1,.084-.017c.078,0,.134.061.134.167v.635a.369.369,0,0,1-.217.329l-2.139.9v.29l2.144,1.064a.423.423,0,0,1,.211.345v1.231c0,.095-.056.156-.128.156a.461.461,0,0,1-.083-.022l-2.144-1.069v.964a.237.237,0,0,1-.234.239h-1.977a.232.232,0,0,1-.228-.239v-.908l-2.712,1.064a.248.248,0,0,1-.084.011.156.156,0,0,1-.134-.167v-.674a.385.385,0,0,1,.217-.323l2.712-1.058V318.7l-2.712,1.064a.277.277,0,0,1-.084.017.154.154,0,0,1-.134-.173v-.49a.379.379,0,0,1,.217-.323l2.712-1.069v-.718l-2.712,1.069a.59.59,0,0,1-.084.011.162.162,0,0,1-.134-.173v-.49a.387.387,0,0,1,.217-.329l1.7-.663H238.1a.24.24,0,0,1-.234-.24v-.434a.24.24,0,0,1,.234-.239h7.257m35.172-3.219a.99.99,0,0,1,.963,1.014v.223h.9v-.223a.965.965,0,1,1,1.927,0v.223h.852v-.223a.967.967,0,1,1,1.933,0l-.006.924a.278.278,0,0,1-.067.173.256.256,0,0,1-.156.072H284.31v1.236h2.562a.207.207,0,0,1,.156.073.255.255,0,0,1,.067.173v.462a.291.291,0,0,1-.067.173.224.224,0,0,1-.156.067h-1l1.454,4.851a.187.187,0,0,1-.184.189h-1.454a.187.187,0,0,1-.184-.189l-1.2-3.988v3.982a.182.182,0,0,1-.184.184h-1.56a.185.185,0,0,1-.184-.184v-4.088l-1.225,4.094a.187.187,0,0,1-.184.189h-1.459a.181.181,0,0,1-.173-.189l1.443-4.851h-1.008a.224.224,0,0,1-.156-.067.259.259,0,0,1-.067-.173v-.462a.231.231,0,0,1,.067-.173.207.207,0,0,1,.156-.073h2.607v-1.236h-2.607a.256.256,0,0,1-.156-.072.249.249,0,0,1-.067-.173l.011-.924a.986.986,0,0,1,.964-1.014m15.862-.011a1.115,1.115,0,0,1,1.047.746l.217.579h1.214v-.423a.909.909,0,0,1,.958-.908c.93,0,.941,1.053.936,1.086l.006.952a.223.223,0,0,1-.061.162.217.217,0,0,1-.161.072h-2.54l2.568,6.862a.224.224,0,0,1-.117.279h-1.921a.277.277,0,0,1-.084.017.234.234,0,0,1-.195-.139l-2.618-7.018h-6.561a.19.19,0,0,1-.156-.072.207.207,0,0,1-.067-.162v-.468a.219.219,0,0,1,.067-.167.208.208,0,0,1,.156-.072h6.244a1.152,1.152,0,0,1,.685-1.248.915.915,0,0,1,.384-.078m-76.437,3.186a.27.27,0,0,0-.256.273v.212a.262.262,0,0,0,.256.267h1.292l-1.37,5.28a.191.191,0,0,0,.195.256H222.2a.362.362,0,0,0,.329-.256l1.354-5.28h7.669a.262.262,0,0,0,.256-.267v-.212a.27.27,0,0,0-.256-.273h-11.6m94.422,2.6a.213.213,0,0,1,.156.078.218.218,0,0,1,.067.167v.468a.226.226,0,0,1-.067.167.2.2,0,0,1-.156.067h-6.762l-1.181,1.816h4.751l-.529-.769c-.067-.1-.022-.184.089-.184h2.584a.442.442,0,0,1,.323.184l.947,1.487a.214.214,0,0,1-.067.161.207.207,0,0,1-.156.072H302.728a.2.2,0,0,1-.156-.072.219.219,0,0,1-.072-.161v-.468a.234.234,0,0,1,.072-.173.2.2,0,0,1,.156-.078h.707l1.186-1.816h-1.894a.194.194,0,0,1-.156-.067.231.231,0,0,1-.072-.167v-.468a.222.222,0,0,1,.072-.167.2.2,0,0,1,.156-.078h11.646m4.968-5.87a1.156,1.156,0,0,1,1.108,1.192v.273l1.019-.011a.808.808,0,0,1,.785.824.84.84,0,0,1-.306.652l-1.364,1.326.975.952a.553.553,0,0,1,.156.367v2.055a.14.14,0,0,1-.044.111h-.05a.225.225,0,0,1-.061-.039l-1.109-1.08-.006,2.746a.218.218,0,0,1-.212.223h-1.8a.222.222,0,0,1-.217-.223l.006-3.264L316.58,319.9c-.022.017-.045.034-.061.045h-.05a.124.124,0,0,1-.045-.111v-1.866a.609.609,0,0,1,.156-.373L318.229,316l1.17-1.181h-2.657a.214.214,0,0,1-.161-.067.262.262,0,0,1-.067-.178v-.657a.248.248,0,0,1,.067-.173.219.219,0,0,1,.161-.072h1.487V313.4a1.161,1.161,0,0,1,1.114-1.192m-92.428,5.943a.262.262,0,0,0-.256.267v2.256a.267.267,0,0,0,.256.273h2.44a.271.271,0,0,0,.262-.273v-2.256a.266.266,0,0,0-.262-.267h-2.44m-2.228-.941a.266.266,0,0,0-.262.267v4.06a.263.263,0,0,0,.262.267h6.789a.258.258,0,0,0,.256-.267v-3.676a.6.6,0,0,0-.546-.652h-6.5m100.76-5a1.156,1.156,0,0,0-1.114,1.186v1.91h-1.922a.2.2,0,0,0-.161.072.222.222,0,0,0-.072.167v.657a.225.225,0,0,0,.072.173.205.205,0,0,0,.161.078h1.922l-.006,4.383h-1.8a.207.207,0,0,0-.156.073.253.253,0,0,0-.067.178v.474a.24.24,0,0,0,.067.173.207.207,0,0,0,.156.072h5.87a.207.207,0,0,0,.156-.072.24.24,0,0,0,.067-.173v-.474a.253.253,0,0,0-.067-.178.207.207,0,0,0-.156-.073h-1.838l.006-4.383H328.5a.228.228,0,0,0,.173-.078.241.241,0,0,0,.061-.173v-.657a.237.237,0,0,0-.061-.167.223.223,0,0,0-.173-.072h-1.938V313.4a1.156,1.156,0,0,0-1.114-1.186" transform="translate(-193.778 -304.892)" fill-rule="evenodd"/>
    </g>
  </g>
</svg>
