<svg xmlns="http://www.w3.org/2000/svg" width="206.331" height="36.449" viewBox="0 0 206.331 36.449">
  <g id="グループ_71855" data-name="グループ 71855" transform="translate(-93.834 -277.24)">
    <g id="グループ_71856" data-name="グループ 71856" transform="translate(93.834 277.24)">
      <g id="グループ_71847" data-name="グループ 71847" transform="translate(41.51 2.558)">
        <path id="パス_8887" data-name="パス 8887" d="M225.944,291.723v-5.88h2.462v.464h-2v5.417Z" transform="translate(-225.944 -285.698)" fill="#fff"/>
        <path id="パス_8888" data-name="パス 8888" d="M238.273,290.063q-.464.464-.782.724a7.89,7.89,0,0,1-1.333.869,5.345,5.345,0,0,1-.608.289q-.377.145-.174-.116a7.581,7.581,0,0,0,1.651-1.448,6.728,6.728,0,0,0,.956-1.477h-2.549l-.116-.2h2.955V285.66l1.014.116q.289.116.058.406l-.2.145V288.7h1.564l.55-.666.666.608q.173.2-.058.261h-2.636a4.589,4.589,0,0,0,1.246,1.419,6.053,6.053,0,0,0,1.767.927q-.348.232-.492.348a1.265,1.265,0,0,0-.348.492,5.137,5.137,0,0,1-1.767-1.767,5.994,5.994,0,0,1-.493-1.071v2.81q0,.231-.666.289c-.135.019-.2-.058-.2-.232Zm-1.043-1.767a.353.353,0,0,1-.435-.2,2.686,2.686,0,0,1-.116-.521,1.487,1.487,0,0,0-.492-1.043q-.174-.174-.029-.174a2.334,2.334,0,0,1,1.246.667,1.073,1.073,0,0,1,.261.782Q237.636,288.267,237.231,288.3Zm3.737-1.187-.7.7q-.319.29-.724.666c-.1.1-.145.087-.145-.029a4.455,4.455,0,0,1,.261-.55,15.663,15.663,0,0,0,.724-1.767l.869.608q.261.2-.087.319Z" transform="translate(-232.364 -285.573)" fill="#fff"/>
        <path id="パス_8889" data-name="パス 8889" d="M261.637,286.483v.26q0,.2-.261.261a1.024,1.024,0,0,1-.405.029.133.133,0,0,1-.087-.145v-.405h-1.912l-.116-.2h2.028v-.9l.811.087c.193.057.212.155.058.289l-.116.058v.464h1.274v-.9l.9.116q.231.087.029.261l-.174.087v.435h.9l.493-.609.637.579q.174.174-.058.232h-1.97v.26a.2.2,0,0,1-.087.174,2.2,2.2,0,0,1-.406.116q-.261.058-.261-.174v-.376Zm1.159,3.592a4.484,4.484,0,0,0,1.13.637,9.579,9.579,0,0,0,1.883.405,2.384,2.384,0,0,0-.377.348,1.052,1.052,0,0,0-.232.55,6.476,6.476,0,0,1-1.449-.753,5.708,5.708,0,0,1-1.1-1.043v1.622a.247.247,0,0,1-.174.261,1.24,1.24,0,0,1-.493.058.134.134,0,0,1-.087-.145v-1.39a5.861,5.861,0,0,1-.927.666,6.308,6.308,0,0,1-1.506.637c-.367.1-.493.077-.377-.057a5.633,5.633,0,0,0,2.259-1.8h-2.288l-.087-.2H261.9v-.637h-1.217v.145q0,.174-.232.232l-.2.058q-.319.087-.319-.174v-2.636l.869.348h2.955l.29-.406.7.579q.174.174-.058.261l-.087.029v1.622a.194.194,0,0,1-.087.174,1.056,1.056,0,0,1-.319.087c-.232.039-.348-.01-.348-.145v-.174h-1.188v.637H264.5l.551-.608.637.579q.174.174-.058.232Zm-2.115-1.97H261.9v-.7h-1.217Zm0,.927H261.9v-.724h-1.217Zm1.97-.927h1.188v-.7h-1.188Zm0,.2v.724h1.188v-.724Z" transform="translate(-248.515 -285.382)" fill="#fff"/>
        <path id="パス_8890" data-name="パス 8890" d="M282.088,293.873v-.464h2v-5.446h.463v5.909Z" transform="translate(-264.447 -287.153)" fill="#fff"/>
        <path id="パス_8891" data-name="パス 8891" d="M307.475,288.7q-.319.145-.637.319t-.464.116a1.141,1.141,0,0,1-.348-.261,1.232,1.232,0,0,1-.232-.29q-.116-.376.145-.521a.321.321,0,0,0,.029.145.379.379,0,0,0,.463.2,1.69,1.69,0,0,0,.261-.029q.521-.115.985-.2.145-.347.26-.724a6.117,6.117,0,0,0,.174-.7q0-.2-.521-.377a.694.694,0,0,1,.492-.174.778.778,0,0,1,.55.232,1.194,1.194,0,0,0,.232.174q.289.261.116.405a.726.726,0,0,0-.174.174q-.058.116-.348.9a1.906,1.906,0,0,1,.782.029,1.048,1.048,0,0,1,.608.666,2.173,2.173,0,0,1,.087.84,4.834,4.834,0,0,1-.579,2.172,1.07,1.07,0,0,1-.9.666c-.155,0-.251-.1-.29-.29a1.7,1.7,0,0,0-.087-.289q-.232-.261-.492-.522l-.145-.174q-.116-.145.145-.058a3.622,3.622,0,0,0,.579.26.319.319,0,0,0,.348-.029,1.822,1.822,0,0,0,.521-1.1,3.9,3.9,0,0,0,.116-1.419c-.039-.27-.145-.425-.319-.464a.892.892,0,0,0-.521.058l-.9,2.114q-.406.928-.521,1.217-.087.174-.232.435-.319.463-.637.116a.585.585,0,0,1,.029-.753,3.867,3.867,0,0,0,.29-.377q.231-.435.637-1.274Q307.156,289.537,307.475,288.7Zm3.91.985a2.233,2.233,0,0,0-.29-.956,3.232,3.232,0,0,0-.7-.753l-.232-.174q-.261-.2.289-.029a4.712,4.712,0,0,1,1.13.579,1.977,1.977,0,0,1,.9,1.564q0,.638-.319.724a.437.437,0,0,1-.463-.232.519.519,0,0,0-.29-.232,4.34,4.34,0,0,0-.927.058c-.155.019-.232.019-.232,0A5.9,5.9,0,0,1,311.385,289.682Z" transform="translate(-280.68 -285.945)" fill="#fff"/>
        <path id="パス_8892" data-name="パス 8892" d="M330.079,289.6a6.59,6.59,0,0,1,.956-.405,4.814,4.814,0,0,1,1.217-.232,2.616,2.616,0,0,1,1.246.232,1.37,1.37,0,0,1,.811.9,1.241,1.241,0,0,1-.376,1.3,3.2,3.2,0,0,1-1.651.7,4.87,4.87,0,0,1-1.535.145q-.174-.058.029-.087a6.634,6.634,0,0,0,1.246-.29,2.176,2.176,0,0,0,1.13-.724,1.261,1.261,0,0,0,.174-1.13,1.111,1.111,0,0,0-.927-.753,1.724,1.724,0,0,0-1.188.26,3.1,3.1,0,0,0-.522.377,5.027,5.027,0,0,0-.492.637q-.347.406-.7.087a.815.815,0,0,1-.232-.724q.029-.2.116-.608a4.96,4.96,0,0,0,.087-1.014v-.2c-.02-.193-.029-.309-.029-.348a.284.284,0,0,1,.145-.26,3.443,3.443,0,0,1,1.072-.434,7.1,7.1,0,0,0,.753-.2,1.908,1.908,0,0,1-1.159-.492,1.5,1.5,0,0,1-.2-.348c-.077-.154-.1-.261-.058-.318.019.019.1.087.232.2a2.4,2.4,0,0,0,.956.261q.579.058.666.058a.774.774,0,0,1,.666.579q.116.406-.2.463a5.3,5.3,0,0,1-.753-.058,2.237,2.237,0,0,0-.9.058,1.4,1.4,0,0,0-.406.232q-.232.2-.116.29l.029.029a1.073,1.073,0,0,1,.087.9q-.145.522-.174.7Z" transform="translate(-296.796 -285.573)" fill="#fff"/>
        <path id="パス_8893" data-name="パス 8893" d="M361.464,291.723v-5.88h2.462v.464h-2v5.417Z" transform="translate(-318.882 -285.698)" fill="#fff"/>
        <path id="パス_8894" data-name="パス 8894" d="M370.221,293.07v-.2h.087a.474.474,0,0,0,.348-.145.59.59,0,0,0,.145-.434v-3.737a.9.9,0,0,0-.145-.608.593.593,0,0,0-.435-.145v-.2h2.028A2.03,2.03,0,0,1,373.7,288a1.309,1.309,0,0,1,.406.956,1.137,1.137,0,0,1-.319.84,1.694,1.694,0,0,1-1.1.435,1.671,1.671,0,0,1,1.159.405,1.359,1.359,0,0,1,.435.985,1.417,1.417,0,0,1-.348,1.043,1.741,1.741,0,0,1-1.275.405Zm1.391-2.983h.376a1.315,1.315,0,0,0,.956-.29,1.1,1.1,0,0,0,.29-.811,1.557,1.557,0,0,0-.116-.579.818.818,0,0,0-.406-.463,1.92,1.92,0,0,0-.753-.116.307.307,0,0,0-.348.348Zm0,.232v2.057a.45.45,0,0,0,.087.319.565.565,0,0,0,.406.116,1.317,1.317,0,0,0,.956-.29,1.225,1.225,0,0,0,.29-.9,1.2,1.2,0,0,0-1.3-1.3Z" transform="translate(-324.888 -286.9)" fill="#fff"/>
        <path id="パス_8895" data-name="パス 8895" d="M388.906,290.984l-.116,2.086h-3.91v-.232a.628.628,0,0,0,.463-.174.636.636,0,0,0,.145-.464v-3.737a.684.684,0,0,0-.145-.493.637.637,0,0,0-.463-.145V287.6h3.881l.058,1.883h-.2a3.692,3.692,0,0,0-.29-.956,1.039,1.039,0,0,0-.464-.521,1.932,1.932,0,0,0-.869-.174.85.85,0,0,0-.55.116.731.731,0,0,0-.145.521v1.622h.406a.737.737,0,0,0,.463-.2,1.489,1.489,0,0,0,.29-.985h.2v2.607h-.2a2.112,2.112,0,0,0-.087-.608.744.744,0,0,0-.579-.579H386.3v2a.517.517,0,0,0,.116.377.471.471,0,0,0,.348.116h.348a1.252,1.252,0,0,0,.927-.348,2.033,2.033,0,0,0,.435-.7,3.25,3.25,0,0,0,.232-.782Z" transform="translate(-334.94 -286.9)" fill="#fff"/>
        <path id="パス_8896" data-name="パス 8896" d="M400.865,293.07h-2.433v-.232h.145a.667.667,0,0,0,.492-.174.8.8,0,0,0,.174-.579v-3.65a.589.589,0,0,0-.174-.435.9.9,0,0,0-.637-.174V287.6h2.433v.232a.95.95,0,0,0-.666.174.589.589,0,0,0-.145.435v3.708a.665.665,0,0,0,.174.492.869.869,0,0,0,.637.2Z" transform="translate(-344.234 -286.9)" fill="#fff"/>
        <path id="パス_8897" data-name="パス 8897" d="M408.941,293.07h-2.028v-.2a.671.671,0,0,0,.463-.116.634.634,0,0,0,.145-.463v-3.882q0-.55-.608-.608v-.2h2.028v.2a.634.634,0,0,0-.463.145.681.681,0,0,0-.145.492v2.172l1.564-2.028q.289-.435.116-.609a.709.709,0,0,0-.522-.173v-.2h1.883v.2a.979.979,0,0,0-.724.26,6.038,6.038,0,0,0-.435.492l-.753,1.014,1.449,2.636a1.15,1.15,0,0,0,.811.666v.2h-2.23v-.2a.666.666,0,0,0,.493-.173q.173-.174-.058-.579l-1.014-1.883-.579.753v1.275a.537.537,0,0,0,.608.608Z" transform="translate(-350.051 -286.9)" fill="#fff"/>
        <path id="パス_8898" data-name="パス 8898" d="M424.4,292.754h-1.536v-.2a.608.608,0,0,0,.435-.2,2.644,2.644,0,0,0,.376-.811l1.275-4.4h.319l1.448,4.78q.2.608.7.608v.232h-2v-.232h.087q.434,0,.434-.319a1.552,1.552,0,0,0-.087-.492l-.232-.7h-1.536l-.174.551a2.114,2.114,0,0,0-.116.55.355.355,0,0,0,.087.261.821.821,0,0,0,.522.173Zm1.129-2.028-.7-2.433-.666,2.433Z" transform="translate(-360.988 -286.583)" fill="#fff"/>
        <path id="パス_8899" data-name="パス 8899" d="M438.166,293.873v-.464h2v-5.446h.463v5.909Z" transform="translate(-371.483 -287.153)" fill="#fff"/>
        <path id="パス_8900" data-name="パス 8900" d="M462.25,292.637a.944.944,0,0,0,.173.29q.2.173.464-.058.289-.261.956-.811a2.522,2.522,0,0,1,.753-.522.593.593,0,0,1,.522.2l.492.435a15.125,15.125,0,0,0,1.593,1.159l1.014.666a3.016,3.016,0,0,0,.318.232.473.473,0,0,1,.116.348q.028.637-.435.55a1.537,1.537,0,0,1-.724-.463l-.521-.464q-.812-.723-1.941-1.912c-.174-.174-.309-.25-.406-.232q-.406.087-1.043,1.274-.145.29-.319.579-.145.174-.579-.087a1.263,1.263,0,0,1-.434-.348.82.82,0,0,1-.116-.463Q462.134,292.666,462.25,292.637Z" transform="translate(-387.92 -289.595)" fill="#fff"/>
      </g>
      <g id="グループ_71854" data-name="グループ 71854">
        <g id="グループ_71853" data-name="グループ 71853">
          <path id="パス_8901" data-name="パス 8901" d="M130.8,291.678h-6.043l5.686-14.438H94.21L99.9,291.678H93.834v7.571h6.435l-6.2,14.44h36.08l-6.138-14.44H130.8Z" transform="translate(-93.834 -277.24)" fill="#fff"/>
          <g id="グループ_71851" data-name="グループ 71851" transform="translate(1.067 15.252)">
            <g id="グループ_71848" data-name="グループ 71848" transform="translate(0 0.4)">
              <path id="パス_8902" data-name="パス 8902" d="M110.571,335.421h-3.978a.158.158,0,0,0-.158.157v2.4a.158.158,0,0,0,.158.156h4.157a.157.157,0,0,0,.157-.156v-2.168A.355.355,0,0,0,110.571,335.421Zm-.96,2.045a.159.159,0,0,1-.16.154h-1.489a.157.157,0,0,1-.158-.154v-1.331a.155.155,0,0,1,.158-.156h1.489a.157.157,0,0,1,.16.156Z" transform="translate(-103.543 -332.792)" fill="#1a1311"/>
              <path id="パス_8903" data-name="パス 8903" d="M104.484,332.181h-7.1a.157.157,0,0,0-.158.154v.126a.161.161,0,0,0,.158.161h.789l-.838,3.112a.117.117,0,0,0,.116.153h1.308a.221.221,0,0,0,.2-.153l.837-3.112h4.686a.163.163,0,0,0,.157-.161v-.126A.159.159,0,0,0,104.484,332.181Z" transform="translate(-97.23 -330.57)" fill="#1a1311"/>
              <path id="パス_8904" data-name="パス 8904" d="M104.641,327.756a.7.7,0,0,0-1.4-.045h-1.6a.7.7,0,0,0-1.4,0h-1.6a.7.7,0,0,0-1.4.045v.311a.157.157,0,0,0,.158.157h7.1a.159.159,0,0,0,.157-.157Z" transform="translate(-97.23 -327.053)" fill="#1a1311"/>
            </g>
            <g id="グループ_71849" data-name="グループ 71849" transform="translate(9.095 0.209)">
              <path id="パス_8905" data-name="パス 8905" d="M128.258,328.319a.142.142,0,0,0,.141-.143v-.22a.141.141,0,0,0-.141-.142h-.343v-.505a.582.582,0,1,0-1.164,0v.505h-.432a.14.14,0,0,0-.141.142v.22a.141.141,0,0,0,.141.143h.432v2.792a.247.247,0,0,0,0,.065l-.443.141a.2.2,0,0,0-.134.18v.4a.1.1,0,0,0,.134.1l1.918-.594a.2.2,0,0,0,.134-.179v-.4a.1.1,0,0,0-.134-.1l-.315.1v-2.5Z" transform="translate(-126.177 -326.631)" fill="#1a1311"/>
              <path id="パス_8906" data-name="パス 8906" d="M138.667,326.444a.552.552,0,0,0-.547.471h-2.406a.537.537,0,0,0-.554-.471c-.564,0-.582.654-.582.733v.536a.141.141,0,0,0,.139.138h.881a.143.143,0,0,0,.144-.138v-.363h2.345v.363a.14.14,0,0,0,.139.138h.881a.141.141,0,0,0,.142-.138v-.536C139.25,327.1,139.266,326.444,138.667,326.444Z" transform="translate(-131.938 -326.444)" fill="#1a1311"/>
              <path id="パス_8907" data-name="パス 8907" d="M138.991,332.781a.142.142,0,0,0,.142-.143v-.253a.143.143,0,0,0-.142-.143h-4.44a.145.145,0,0,0-.144.143v.253a.144.144,0,0,0,.144.143h1.027l-1.039.4a.223.223,0,0,0-.132.193v.29a.09.09,0,0,0,.132.091l1.659-.629v.426l-1.659.629a.224.224,0,0,0-.132.19v.293a.091.091,0,0,0,.132.089l1.659-.625v.415l-1.659.624a.237.237,0,0,0-.132.195v.394a.094.094,0,0,0,.132.094l1.659-.629v.535a.143.143,0,0,0,.142.141h1.211a.143.143,0,0,0,.141-.141v-.565l1.313.629a.083.083,0,0,0,.128-.083v-.721a.244.244,0,0,0-.128-.2l-1.313-.627v-.168l1.311-.536a.218.218,0,0,0,.13-.19v-.378a.089.089,0,0,0-.13-.089l-1.311.534v-.572Z" transform="translate(-131.821 -330.421)" fill="#1a1311"/>
            </g>
            <g id="グループ_71850" data-name="グループ 71850" transform="translate(18.089 0.056)">
              <path id="パス_8908" data-name="パス 8908" d="M159.02,327.379h-1.526v-.348h1.526a.143.143,0,0,0,.142-.141s0-.281,0-.293a.637.637,0,0,0-1.271-.053h-.255a.635.635,0,0,0-1.267,0h-.253a.635.635,0,0,0-.631-.587.657.657,0,0,0-.661.64v.293a.142.142,0,0,0,.141.141h1.387v.348H154.96a.142.142,0,0,0-.141.141v.153a.145.145,0,0,0,.141.142h1.387v.327H154.96a.182.182,0,0,0-.162.164l0,.65a.142.142,0,0,0,.144.141h1.021a.14.14,0,0,0,.137-.141v-.205h.246v.224a.138.138,0,0,0,.14.14h.865a.139.139,0,0,0,.142-.14v-.224h.26v.205a.141.141,0,0,0,.142.141h1.018a.143.143,0,0,0,.144-.141v-.407a.38.38,0,0,0-.4-.407h-1.164v-.327h1.526a.145.145,0,0,0,.142-.142v-.153A.142.142,0,0,0,159.02,327.379Z" transform="translate(-154.798 -325.957)" fill="#1a1311"/>
              <path id="パス_8909" data-name="パス 8909" d="M170.044,326.148a.54.54,0,0,0-.584.531v1.473a.141.141,0,0,0,.142.146h.874a.142.142,0,0,0,.139-.146v-1.368C170.62,326.765,170.615,326.148,170.044,326.148Z" transform="translate(-164.853 -326.088)" fill="#1a1311"/>
              <path id="パス_8910" data-name="パス 8910" d="M174.71,326.148a.541.541,0,0,0-.584.531v2.4a.141.141,0,0,0,.139.144h.875a.141.141,0,0,0,.141-.144v-2.3C175.284,326.765,175.279,326.148,174.71,326.148Z" transform="translate(-168.053 -326.088)" fill="#1a1311"/>
              <path id="パス_8911" data-name="パス 8911" d="M161.887,335.239h-1.341V334.9c0-.023,0-.64-.573-.64a.544.544,0,0,0-.587.536v.441h-4.435a.143.143,0,0,0-.144.139v.214a.144.144,0,0,0,.144.141h.684l-.807,1.417c-.037.068,0,.123.072.123h1.006a.278.278,0,0,0,.216-.123l.633-1.118.874,1.241h1.315a.3.3,0,0,0,.218-.12l.8-1.2.766,1.2a.292.292,0,0,0,.218.12h.949c.081,0,.107-.056.065-.12l-.907-1.421h.837a.143.143,0,0,0,.141-.141v-.214A.142.142,0,0,0,161.887,335.239Zm-3.5,1.355-.605-.86h1.113Z" transform="translate(-154.804 -331.652)" fill="#1a1311"/>
            </g>
            <path id="パス_8912" data-name="パス 8912" d="M190.645,326.838a.14.14,0,0,0,.142-.137v-.195a.141.141,0,0,0-.142-.139h-1.568a.61.61,0,0,0-.659-.587.618.618,0,0,0-.631.587h-1.438a.622.622,0,0,0-.633-.587.6.6,0,0,0-.654.587h-1.568a.14.14,0,0,0-.139.139v.195a.139.139,0,0,0,.139.137h1.568v.386h-1a.144.144,0,0,0-.144.141V329.1a.144.144,0,0,0,.144.139h2.378v.424h-2.949a.143.143,0,0,0-.139.146v.188a.14.14,0,0,0,.139.142h1.132l-1.22,1.215c-.055.06-.037.1.042.1h1.3a.462.462,0,0,0,.248-.093l1.445-1.226h0v1.178a.144.144,0,0,0,.142.141h1.06a.147.147,0,0,0,.144-.141v-1.1l1.35,1.148a.475.475,0,0,0,.25.093h1.3c.079,0,.1-.044.044-.1l-1.22-1.215h1.134a.141.141,0,0,0,.142-.142v-.188a.143.143,0,0,0-.142-.146h-2.858v-.424h2.326a.142.142,0,0,0,.14-.139v-1.335a.483.483,0,0,0-.506-.538h-.67v-.386Zm-4.2,1.967h-1.218v-.4h1.218Zm0-.812h-1.218v-.347h1.218Zm1.334-.769H186.36v-.386h1.415Zm1.176,1.58h-1.164v-.4h1.164Zm0-.812h-1.164v-.347h1.164Z" transform="translate(-156.293 -325.78)" fill="#1a1311"/>
          </g>
          <g id="グループ_71852" data-name="グループ 71852" transform="translate(2.485 1.478)">
            <path id="パス_8913" data-name="パス 8913" d="M108.29,286.262l4.567,11.6h18.761l4.57-11.6Zm14.062,3.548A5.055,5.055,0,0,1,118.471,288h7.759A5.05,5.05,0,0,1,122.352,289.81Z" transform="translate(-106.232 -284.906)" fill="#dc000c"/>
            <path id="パス_8914" data-name="パス 8914" d="M102.679,283.8l4.375,11.106h.371L103,283.671l-.545-1.377h30.86l-.543,1.377L128.35,294.9h.376L133.1,283.8l.635-1.615.093-.238H101.948l.1.238Z" transform="translate(-101.883 -281.946)" fill="#dc000c"/>
            <path id="パス_8915" data-name="パス 8915" d="M132.532,358.356l-4.706-11.072h-.378l4.765,11.206.6,1.4H102.268l.6-1.4,4.809-11.206H107.3l-4.753,11.072L101.846,360l-.1.239h31.593l-.1-.239Z" transform="translate(-101.742 -326.754)" fill="#dc000c"/>
            <path id="パス_8916" data-name="パス 8916" d="M135.778,358.887l-4.934-11.6H113.268l-4.978,11.6Z" transform="translate(-106.232 -326.754)" fill="#dc000c"/>
          </g>
        </g>
      </g>
      <path id="パス_8918" data-name="パス 8918" d="M0,0H74.542" transform="translate(131.54 5.962)" fill="#fff" stroke="#fff" stroke-linecap="round" stroke-width="0.5"/>
      <path id="パス_8917" data-name="パス 8917" d="M221.451,313.106a1.779,1.779,0,0,1,1.751,1.708h3.986a1.751,1.751,0,0,1,3.5,0h3.995a1.752,1.752,0,1,1,3.5.119v.79a.407.407,0,0,1-.391.417h-17.7a.414.414,0,0,1-.4-.417v-.79a1.8,1.8,0,0,1,1.76-1.827m27.556-.493a1.35,1.35,0,0,1,1.385,1.207h6.01a1.376,1.376,0,0,1,1.36-1.207c1.5,0,1.453,1.7,1.453,1.9v1.386a.365.365,0,0,1-.357.357h-2.2a.357.357,0,0,1-.348-.357v-.935h-5.839v.935a.367.367,0,0,1-.365.357H247.91a.359.359,0,0,1-.357-.357v-1.386c0-.2.043-1.9,1.454-1.9m106.281-.042a1.342,1.342,0,0,0-1.419,1.1l-7.454,1.479a.3.3,0,0,0-.238.111.372.372,0,0,0-.111.263v1.6a.372.372,0,0,0,.111.263.3.3,0,0,0,.238.111l8.9-1.785c.094,0,8.9,1.785,8.9,1.785a.348.348,0,0,0,.246-.111.447.447,0,0,0,.094-.263v-1.6a.447.447,0,0,0-.094-.263.348.348,0,0,0-.246-.111l-7.59-1.513a1.307,1.307,0,0,0-1.334-1.062m-80.356-.2a1.386,1.386,0,0,0-1.454,1.377v3.816a.363.363,0,0,0,.357.374h2.184a.356.356,0,0,0,.348-.374v-3.545c.009-.051,0-1.649-1.436-1.649m71.483,6.315a.31.31,0,0,0-.238.119.357.357,0,0,0-.111.264v.7a.377.377,0,0,0,.111.272.324.324,0,0,0,.238.1h17.773a.34.34,0,0,0,.238-.1.371.371,0,0,0,.1-.272v-.7a.351.351,0,0,0-.1-.264.325.325,0,0,0-.238-.119H346.414m-67.819-6.315a1.38,1.38,0,0,0-1.454,1.377v6.23a.359.359,0,0,0,.348.365h2.184a.361.361,0,0,0,.357-.365v-5.958c0-.051-.009-1.649-1.436-1.649m-14.909-.145a1.6,1.6,0,0,1,1.581,1.513h.638a1.578,1.578,0,0,1,3.153,0h.637a1.6,1.6,0,0,1,1.581-1.513,1.622,1.622,0,0,1,1.589,1.649l.009.757a.361.361,0,0,1-.357.365h-3.808v.9h3.808a.368.368,0,0,1,.357.374v.382a.356.356,0,0,1-.357.365h-3.808v.85h2.916a.965.965,0,0,1,.986,1.063v1.054a.354.354,0,0,1-.348.365h-2.541a.361.361,0,0,1-.357-.365v-.527h-.654v.569a.361.361,0,0,1-.349.374h-2.15a.362.362,0,0,1-.348-.374v-.569h-.612v.527a.361.361,0,0,1-.357.365h-2.542a.359.359,0,0,1-.348-.365l-.008-1.691a.462.462,0,0,1,.4-.425h3.468v-.85h-3.468a.349.349,0,0,1-.349-.365v-.382a.362.362,0,0,1,.349-.374h3.468v-.9h-3.468a.354.354,0,0,1-.349-.365v-.757a1.666,1.666,0,0,1,1.641-1.649m71.169,5.924a.345.345,0,0,1,.246.1.36.36,0,0,1,.1.255v1.122a.367.367,0,0,1-.1.264.346.346,0,0,1-.246.1h-2.669v3.7l2.669-.315a.321.321,0,0,1,.246.111.353.353,0,0,1,.1.264v1.113a.361.361,0,0,1-.1.255.346.346,0,0,1-.246.1l-9.273,1.122a.291.291,0,0,1-.238-.11.334.334,0,0,1-.1-.255v-1.114a.349.349,0,0,1,.34-.365l3.349-.408v-4.1h-3.349a.342.342,0,0,1-.238-.1.367.367,0,0,1-.1-.264V318.5a.36.36,0,0,1,.1-.255.341.341,0,0,1,.238-.1h9.273m-91-5.3a1.489,1.489,0,0,1,1.445,1.521v1.309h.867a.354.354,0,0,1,.348.365v.57a.362.362,0,0,1-.348.374H245.3v6.477l.791-.264a.247.247,0,0,1,.136-.008.25.25,0,0,1,.2.272v1.02a.539.539,0,0,1-.34.485l-4.777,1.53a.985.985,0,0,1-.136.017.254.254,0,0,1-.2-.272v-1.02a.538.538,0,0,1,.34-.484l1.105-.349-.017-.17v-7.233h-1.079a.367.367,0,0,1-.348-.374v-.57a.359.359,0,0,1,.348-.365H242.4v-1.309a1.5,1.5,0,0,1,1.454-1.521m27.072,12.163,1.266-2.227h-2.779l1.513,2.227m3.961-6.035a1.392,1.392,0,0,0-1.462,1.385V321.5H262.351a.359.359,0,0,0-.348.365v.553a.365.365,0,0,0,.348.365h1.709l-2.006,3.672a.192.192,0,0,0,.179.315h2.524a.669.669,0,0,0,.518-.315l1.589-2.9,2.184,3.213h3.272a.768.768,0,0,0,.552-.3l1.972-3.1,1.913,3.094a.708.708,0,0,0,.552.306h2.363c.2,0,.264-.136.162-.306l-2.269-3.68h2.091a.367.367,0,0,0,.357-.365v-.553a.361.361,0,0,0-.357-.365h-3.349v-.858c.008-.051,0-1.666-1.419-1.666m13.965-6.91a1.606,1.606,0,0,1,1.581,1.521h3.578a1.6,1.6,0,0,1,1.581-1.521,1.557,1.557,0,0,1,1.641,1.521h3.918a.362.362,0,0,1,.348.374v.493a.359.359,0,0,1-.348.365h-3.918v.994H298.9a1.237,1.237,0,0,1,1.266,1.394v3.451a.367.367,0,0,1-.348.374h-5.805v1.1h7.14a.365.365,0,0,1,.348.365v.5a.357.357,0,0,1-.348.357h-2.839l3.043,3.162c.136.145.094.255-.1.255h-3.247a1.061,1.061,0,0,1-.62-.238l-3.375-2.975V326.4a.356.356,0,0,1-.357.365h-2.643a.354.354,0,0,1-.348-.365v-3.052h-.017l-3.6,3.179a1.041,1.041,0,0,1-.621.238h-3.247c-.2,0-.238-.111-.1-.255l3.043-3.162H283.3a.357.357,0,0,1-.348-.357v-.5a.365.365,0,0,1,.348-.365h7.361v-1.1h-5.933a.37.37,0,0,1-.366-.374v-4.488a.367.367,0,0,1,.366-.357h2.482v-.994H283.3a.359.359,0,0,1-.348-.365v-.493a.362.362,0,0,1,.348-.374h3.91a1.556,1.556,0,0,1,1.64-1.521m1.6,2.754v.994h3.536v-.994h-3.536m-2.83,2.091v.9h3.043v-.9h-3.043m6.392,0v.9h2.916v-.9h-2.916m-6.392,1.972v1.029h3.043v-1.029h-3.043m6.392,0v1.029h2.916v-1.029h-2.916m15.215,7.607a.282.282,0,0,1-.272.281h-2.388a.276.276,0,0,1-.272-.281V323.1l-1.777,2.244c-.11.145-.2.1-.2-.076v-3.995a1.086,1.086,0,0,1,.2-.587l1.777-2.252v-1.615H304.68a.4.4,0,0,1-.255-.1.444.444,0,0,1-.085-.263v-.714a.438.438,0,0,1,.085-.255.36.36,0,0,1,.255-.1h1.615v-1.411a1.472,1.472,0,1,1,2.941,0l-.008,1.411h1.011a.341.341,0,0,1,.246.1.4.4,0,0,1,.1.255v.714a.4.4,0,0,1-.1.263.378.378,0,0,1-.246.1h-1.011v.119l1.156,1.454a1.208,1.208,0,0,1,.2.595v3.995c0,.178-.094.212-.2.068l-1.156-1.453v4.887m-50.37-9.146a.361.361,0,0,1,.357.365v.663a.361.361,0,0,1-.357.366H255.62v1.462l3.264-1.368a.176.176,0,0,1,.128-.025c.119,0,.2.094.2.255v.969a.564.564,0,0,1-.332.5L255.62,321.9v.442l3.273,1.624a.646.646,0,0,1,.323.527v1.878c0,.145-.085.238-.2.238a.7.7,0,0,1-.127-.034l-3.273-1.632v1.471a.361.361,0,0,1-.357.365h-3.017a.354.354,0,0,1-.348-.365v-1.386l-4.139,1.624a.378.378,0,0,1-.128.017.237.237,0,0,1-.2-.255v-1.028a.588.588,0,0,1,.331-.493l4.139-1.615v-1.088l-4.139,1.624a.422.422,0,0,1-.128.025.235.235,0,0,1-.2-.263v-.748a.578.578,0,0,1,.331-.493L251.9,320.7v-1.1l-4.139,1.632a.9.9,0,0,1-.128.017.247.247,0,0,1-.2-.264v-.748a.59.59,0,0,1,.331-.5l2.592-1.011h-2.567a.367.367,0,0,1-.357-.366V317.7a.367.367,0,0,1,.357-.365h11.075m53.676-4.913a1.51,1.51,0,0,1,1.47,1.547v.34h1.369v-.34a1.472,1.472,0,1,1,2.941,0v.34h1.3v-.34a1.476,1.476,0,1,1,2.95,0l-.009,1.411a.424.424,0,0,1-.1.264.39.39,0,0,1-.238.111H318.3v1.887h3.91a.316.316,0,0,1,.238.111.388.388,0,0,1,.1.263v.706a.444.444,0,0,1-.1.263.341.341,0,0,1-.238.1h-1.521l2.218,7.4a.285.285,0,0,1-.281.289h-2.218a.285.285,0,0,1-.281-.289l-1.827-6.086v6.077a.277.277,0,0,1-.28.281h-2.38a.283.283,0,0,1-.28-.281v-6.239l-1.87,6.247a.285.285,0,0,1-.28.289h-2.227a.276.276,0,0,1-.263-.289l2.2-7.4h-1.538a.342.342,0,0,1-.238-.1.4.4,0,0,1-.1-.263v-.706a.352.352,0,0,1,.1-.263.316.316,0,0,1,.238-.111h3.978v-1.887h-3.978a.391.391,0,0,1-.238-.111.381.381,0,0,1-.1-.264l.017-1.411a1.505,1.505,0,0,1,1.471-1.547m24.207-.017a1.7,1.7,0,0,1,1.6,1.139l.331.884h1.853v-.646a1.388,1.388,0,0,1,1.462-1.385c1.42,0,1.437,1.606,1.428,1.657l.009,1.454a.34.34,0,0,1-.094.247.331.331,0,0,1-.246.11h-3.876l3.918,10.472a.341.341,0,0,1-.178.425h-2.932a.423.423,0,0,1-.128.025.357.357,0,0,1-.3-.212l-3.995-10.71H325.581a.291.291,0,0,1-.238-.11.315.315,0,0,1-.1-.247V314.8a.334.334,0,0,1,.1-.255.317.317,0,0,1,.238-.11h9.528a1.759,1.759,0,0,1,1.045-1.9,1.4,1.4,0,0,1,.587-.119m-116.65,4.862a.413.413,0,0,0-.391.416v.323a.4.4,0,0,0,.391.408h1.972l-2.091,8.058a.292.292,0,0,0,.3.391h3.255a.552.552,0,0,0,.5-.391l2.066-8.058h11.7a.4.4,0,0,0,.391-.408v-.323a.412.412,0,0,0-.391-.416h-17.7m144.1,3.969a.325.325,0,0,1,.238.119.333.333,0,0,1,.1.255v.714a.346.346,0,0,1-.1.255.309.309,0,0,1-.238.1H353.868l-1.8,2.771h7.25l-.807-1.173c-.1-.153-.034-.281.136-.281h3.944a.675.675,0,0,1,.493.281l1.445,2.27a.326.326,0,0,1-.1.246.317.317,0,0,1-.238.111H346.414a.3.3,0,0,1-.238-.111.334.334,0,0,1-.111-.246v-.714a.357.357,0,0,1,.111-.263.309.309,0,0,1,.238-.119h1.079l1.81-2.771h-2.89a.3.3,0,0,1-.238-.1.353.353,0,0,1-.111-.255v-.714a.339.339,0,0,1,.111-.255.31.31,0,0,1,.238-.119h17.773m7.582-8.959a1.764,1.764,0,0,1,1.691,1.819v.416l1.556-.017a1.233,1.233,0,0,1,1.2,1.258,1.282,1.282,0,0,1-.468.994l-2.082,2.023,1.487,1.454a.844.844,0,0,1,.238.561v3.136a.213.213,0,0,1-.068.17h-.077a.344.344,0,0,1-.093-.06l-1.692-1.649-.008,4.19a.332.332,0,0,1-.323.34h-2.745a.339.339,0,0,1-.331-.34l.008-4.981-2.507,2.422c-.034.025-.068.051-.094.068h-.076a.189.189,0,0,1-.068-.17v-2.847a.929.929,0,0,1,.238-.57l2.516-2.431,1.785-1.8H367.8a.326.326,0,0,1-.246-.1.4.4,0,0,1-.1-.272v-1a.379.379,0,0,1,.1-.263.335.335,0,0,1,.246-.111h2.27V314.1a1.772,1.772,0,0,1,1.7-1.819m-141.053,9.069a.4.4,0,0,0-.391.408V325.2a.407.407,0,0,0,.391.417h3.723a.414.414,0,0,0,.4-.417v-3.442a.406.406,0,0,0-.4-.408h-3.723m-3.4-1.436a.406.406,0,0,0-.4.408v6.2a.4.4,0,0,0,.4.408h10.361a.394.394,0,0,0,.391-.408v-5.61a.909.909,0,0,0-.833-.994h-9.919m153.769-7.624a1.764,1.764,0,0,0-1.7,1.81v2.915h-2.933a.306.306,0,0,0-.246.111.338.338,0,0,0-.111.255v1a.344.344,0,0,0,.111.264.313.313,0,0,0,.246.119h2.933l-.008,6.689h-2.754a.315.315,0,0,0-.238.111.386.386,0,0,0-.1.272v.723a.366.366,0,0,0,.1.263.316.316,0,0,0,.238.111h8.959a.316.316,0,0,0,.238-.111.366.366,0,0,0,.1-.263v-.723a.386.386,0,0,0-.1-.272.316.316,0,0,0-.238-.111h-2.8l.009-6.689h2.958a.348.348,0,0,0,.264-.119.369.369,0,0,0,.093-.264v-1a.361.361,0,0,0-.093-.255.341.341,0,0,0-.264-.111h-2.958V314.1a1.764,1.764,0,0,0-1.7-1.81" transform="translate(-180.145 -301.12)" fill="#fff" fill-rule="evenodd"/>
    </g>
  </g>
</svg>
