<svg xmlns="http://www.w3.org/2000/svg" width="206.687" height="36.512" viewBox="0 0 206.687 36.512">
  <g id="グループ_72724" data-name="グループ 72724" transform="translate(-93.834 -277.24)">
    <g id="グループ_72716" data-name="グループ 72716" transform="translate(135.416 279.803)">
      <path id="パス_62910" data-name="パス 62910" d="M225.944,291.734v-5.891h2.466v.465h-2v5.426Z" transform="translate(-225.944 -285.698)" fill="#1a1311"/>
      <path id="パス_62911" data-name="パス 62911" d="M238.279,290.07q-.465.465-.783.725a7.9,7.9,0,0,1-1.335.871,5.346,5.346,0,0,1-.609.29q-.378.145-.174-.116a7.594,7.594,0,0,0,1.654-1.451,6.739,6.739,0,0,0,.957-1.48h-2.554l-.116-.2h2.96V285.66l1.016.116q.289.116.058.406l-.2.145v2.379h1.567l.551-.667.668.609q.174.2-.058.261h-2.64a4.6,4.6,0,0,0,1.248,1.421,6.066,6.066,0,0,0,1.77.929q-.348.233-.493.348a1.267,1.267,0,0,0-.348.493,5.146,5.146,0,0,1-1.77-1.77,6,6,0,0,1-.494-1.073v2.815q0,.232-.667.29c-.136.019-.2-.058-.2-.232Zm-1.045-1.77a.353.353,0,0,1-.435-.2,2.691,2.691,0,0,1-.116-.522,1.489,1.489,0,0,0-.493-1.045q-.174-.174-.029-.174a2.338,2.338,0,0,1,1.248.668,1.075,1.075,0,0,1,.261.783Q237.64,288.272,237.234,288.3Zm3.743-1.189-.7.7q-.32.29-.726.668c-.1.1-.145.087-.145-.029a4.468,4.468,0,0,1,.261-.551,15.687,15.687,0,0,0,.726-1.77l.87.609q.261.2-.087.319Z" transform="translate(-232.359 -285.573)" fill="#1a1311"/>
      <path id="パス_62912" data-name="パス 62912" d="M261.642,286.485v.261q0,.2-.261.261a1.026,1.026,0,0,1-.406.029.133.133,0,0,1-.087-.145v-.406h-1.915l-.116-.2h2.031v-.9l.812.088c.193.058.213.155.058.29l-.116.058v.465h1.277v-.9l.9.116q.232.087.029.261l-.174.087v.435h.9l.494-.61.638.58q.174.174-.058.232h-1.973v.261a.2.2,0,0,1-.087.174,2.207,2.207,0,0,1-.406.116q-.261.059-.261-.174v-.377Zm1.161,3.6a4.489,4.489,0,0,0,1.132.638,9.593,9.593,0,0,0,1.886.406,2.387,2.387,0,0,0-.377.348,1.054,1.054,0,0,0-.232.551,6.489,6.489,0,0,1-1.451-.754,5.718,5.718,0,0,1-1.1-1.044v1.625a.247.247,0,0,1-.174.261,1.242,1.242,0,0,1-.494.058.134.134,0,0,1-.087-.145v-1.393a5.872,5.872,0,0,1-.929.668,6.319,6.319,0,0,1-1.509.638c-.368.1-.494.077-.377-.058a5.642,5.642,0,0,0,2.263-1.8h-2.292l-.087-.2H261.9v-.638h-1.219v.145q0,.174-.232.232l-.2.058q-.32.087-.319-.174v-2.641l.87.348h2.96l.29-.406.7.58q.174.174-.058.261l-.087.029V289.3a.2.2,0,0,1-.087.174,1.056,1.056,0,0,1-.319.087c-.232.039-.348-.01-.348-.145v-.174h-1.19v.638h1.857l.551-.609.638.58q.174.175-.058.233Zm-2.118-1.974H261.9v-.7h-1.219Zm0,.928H261.9v-.725h-1.219Zm1.973-.928h1.19v-.7h-1.19Zm0,.2v.725h1.19v-.725Z" transform="translate(-248.497 -285.382)" fill="#1a1311"/>
      <path id="パス_62913" data-name="パス 62913" d="M282.088,293.884v-.465h2v-5.455h.464v5.92Z" transform="translate(-264.416 -287.151)" fill="#1a1311"/>
      <path id="パス_62914" data-name="パス 62914" d="M307.478,288.7q-.32.145-.638.319t-.465.116a1.144,1.144,0,0,1-.348-.261,1.235,1.235,0,0,1-.232-.29q-.117-.377.145-.522a.322.322,0,0,0,.029.145.38.38,0,0,0,.464.2,1.693,1.693,0,0,0,.261-.029q.522-.116.986-.2.145-.348.261-.725a6.119,6.119,0,0,0,.174-.7q0-.2-.522-.377a.7.7,0,0,1,.493-.174.78.78,0,0,1,.551.232,1.2,1.2,0,0,0,.232.174q.289.261.116.406a.727.727,0,0,0-.174.174q-.059.116-.348.9a1.91,1.91,0,0,1,.783.029,1.05,1.05,0,0,1,.609.667,2.176,2.176,0,0,1,.087.842,4.842,4.842,0,0,1-.58,2.176,1.072,1.072,0,0,1-.9.667c-.155,0-.251-.1-.29-.29a1.692,1.692,0,0,0-.087-.29q-.233-.261-.493-.522l-.145-.174q-.117-.145.145-.058a3.633,3.633,0,0,0,.58.261.319.319,0,0,0,.348-.029,1.825,1.825,0,0,0,.522-1.1,3.9,3.9,0,0,0,.116-1.422q-.059-.406-.319-.465a.893.893,0,0,0-.522.058l-.9,2.118q-.407.929-.522,1.219-.087.175-.232.435-.32.464-.638.116a.586.586,0,0,1,.029-.754,3.883,3.883,0,0,0,.29-.377q.232-.435.638-1.277Q307.158,289.543,307.478,288.7Zm3.917.986a2.238,2.238,0,0,0-.29-.957,3.238,3.238,0,0,0-.7-.754l-.232-.174q-.262-.2.29-.029a4.721,4.721,0,0,1,1.132.58,1.981,1.981,0,0,1,.9,1.567q0,.639-.32.725a.437.437,0,0,1-.464-.233.52.52,0,0,0-.29-.232,4.353,4.353,0,0,0-.929.058c-.155.019-.232.019-.232,0A5.907,5.907,0,0,1,311.395,289.688Z" transform="translate(-280.637 -285.945)" fill="#1a1311"/>
      <path id="パス_62915" data-name="パス 62915" d="M330.08,289.606a6.6,6.6,0,0,1,.958-.406,4.824,4.824,0,0,1,1.219-.232,2.621,2.621,0,0,1,1.248.232,1.372,1.372,0,0,1,.812.9,1.243,1.243,0,0,1-.377,1.306,3.21,3.21,0,0,1-1.654.7,4.876,4.876,0,0,1-1.538.145q-.174-.059.029-.087a6.645,6.645,0,0,0,1.248-.29,2.18,2.18,0,0,0,1.132-.726,1.263,1.263,0,0,0,.174-1.132,1.113,1.113,0,0,0-.929-.754,1.728,1.728,0,0,0-1.19.261,3.1,3.1,0,0,0-.522.377,5.031,5.031,0,0,0-.493.638q-.348.406-.7.087a.817.817,0,0,1-.232-.725q.029-.2.116-.609a4.97,4.97,0,0,0,.087-1.016v-.2c-.02-.193-.029-.309-.029-.348a.284.284,0,0,1,.145-.261,3.449,3.449,0,0,1,1.074-.435,7.119,7.119,0,0,0,.754-.2,1.912,1.912,0,0,1-1.161-.493,1.5,1.5,0,0,1-.2-.348c-.077-.155-.1-.261-.058-.319.019.019.1.087.232.2a2.4,2.4,0,0,0,.957.261q.58.059.667.058a.775.775,0,0,1,.667.58q.116.407-.2.464a5.305,5.305,0,0,1-.754-.058,2.239,2.239,0,0,0-.9.058,1.4,1.4,0,0,0-.406.232q-.232.2-.116.29l.029.029a1.075,1.075,0,0,1,.087.9q-.145.523-.174.7Z" transform="translate(-296.739 -285.573)" fill="#1a1311"/>
      <path id="パス_62916" data-name="パス 62916" d="M361.464,291.734v-5.891h2.466v.465h-2v5.426Z" transform="translate(-318.809 -285.698)" fill="#1a1311"/>
      <path id="パス_62917" data-name="パス 62917" d="M370.221,293.079v-.2h.087a.475.475,0,0,0,.348-.145.591.591,0,0,0,.145-.435v-3.743a.9.9,0,0,0-.145-.609.594.594,0,0,0-.436-.145v-.2h2.031A2.033,2.033,0,0,1,373.7,288a1.311,1.311,0,0,1,.406.957,1.139,1.139,0,0,1-.319.842,1.7,1.7,0,0,1-1.1.435,1.674,1.674,0,0,1,1.161.406,1.362,1.362,0,0,1,.435.987,1.42,1.42,0,0,1-.348,1.045,1.745,1.745,0,0,1-1.277.406Zm1.393-2.989h.377a1.318,1.318,0,0,0,.957-.29,1.1,1.1,0,0,0,.29-.813,1.56,1.56,0,0,0-.116-.58.82.82,0,0,0-.406-.464,1.922,1.922,0,0,0-.754-.116.308.308,0,0,0-.348.348Zm0,.232v2.06a.451.451,0,0,0,.087.319.566.566,0,0,0,.406.116,1.32,1.32,0,0,0,.957-.29,1.227,1.227,0,0,0,.29-.9,1.2,1.2,0,0,0-1.306-1.306Z" transform="translate(-324.809 -286.898)" fill="#1a1311"/>
      <path id="パス_62918" data-name="パス 62918" d="M388.913,290.99l-.116,2.089H384.88v-.232a.629.629,0,0,0,.464-.174.637.637,0,0,0,.145-.465v-3.743a.685.685,0,0,0-.145-.494.639.639,0,0,0-.464-.145V287.6h3.888l.058,1.886h-.2a3.7,3.7,0,0,0-.29-.957,1.041,1.041,0,0,0-.464-.522,1.936,1.936,0,0,0-.87-.174.851.851,0,0,0-.551.116.733.733,0,0,0-.145.522v1.625h.406a.738.738,0,0,0,.464-.2,1.492,1.492,0,0,0,.29-.986h.2v2.611h-.2a2.115,2.115,0,0,0-.087-.609.745.745,0,0,0-.58-.58H386.3v2a.518.518,0,0,0,.116.377.472.472,0,0,0,.348.116h.348a1.254,1.254,0,0,0,.929-.348,2.035,2.035,0,0,0,.435-.7,3.253,3.253,0,0,0,.232-.783Z" transform="translate(-334.854 -286.898)" fill="#1a1311"/>
      <path id="パス_62919" data-name="パス 62919" d="M400.869,293.079h-2.437v-.232h.145a.669.669,0,0,0,.493-.174.8.8,0,0,0,.174-.58v-3.656a.59.59,0,0,0-.174-.435.9.9,0,0,0-.638-.174V287.6h2.437v.232a.952.952,0,0,0-.667.174.59.59,0,0,0-.145.435v3.714a.666.666,0,0,0,.174.493.87.87,0,0,0,.638.2Z" transform="translate(-344.141 -286.898)" fill="#1a1311"/>
      <path id="パス_62920" data-name="パス 62920" d="M408.944,293.079h-2.031v-.2a.672.672,0,0,0,.464-.116.635.635,0,0,0,.145-.464v-3.889q0-.551-.609-.609v-.2h2.031v.2a.635.635,0,0,0-.464.145.682.682,0,0,0-.145.493v2.176l1.567-2.031q.29-.435.116-.61a.71.71,0,0,0-.522-.174v-.2h1.886v.2a.981.981,0,0,0-.725.261,6.051,6.051,0,0,0-.435.493l-.754,1.016,1.451,2.64a1.152,1.152,0,0,0,.812.667v.2H409.5v-.2a.667.667,0,0,0,.493-.174q.174-.174-.058-.58l-1.015-1.886-.58.754v1.277a.538.538,0,0,0,.609.609Z" transform="translate(-349.952 -286.898)" fill="#1a1311"/>
      <path id="パス_62921" data-name="パス 62921" d="M424.4,292.763h-1.538v-.2a.609.609,0,0,0,.435-.2,2.648,2.648,0,0,0,.377-.813l1.277-4.411h.319l1.451,4.788q.2.609.7.609v.232h-2v-.232h.087q.435,0,.435-.319a1.555,1.555,0,0,0-.087-.493l-.232-.7h-1.538l-.174.551a2.116,2.116,0,0,0-.116.551.356.356,0,0,0,.087.261.823.823,0,0,0,.522.174Zm1.131-2.031-.7-2.437-.668,2.437Z" transform="translate(-360.881 -286.583)" fill="#1a1311"/>
      <path id="パス_62922" data-name="パス 62922" d="M438.166,293.884v-.465h2v-5.455h.464v5.92Z" transform="translate(-371.368 -287.151)" fill="#1a1311"/>
      <path id="パス_62923" data-name="パス 62923" d="M462.25,292.639a.944.944,0,0,0,.174.29q.2.174.465-.058.289-.262.957-.812a2.527,2.527,0,0,1,.754-.522.594.594,0,0,1,.523.2l.493.435a15.141,15.141,0,0,0,1.6,1.161l1.016.668a3.026,3.026,0,0,0,.319.232.473.473,0,0,1,.116.348q.028.638-.435.551a1.539,1.539,0,0,1-.725-.464l-.522-.465q-.813-.725-1.944-1.915c-.174-.174-.31-.251-.406-.232q-.406.087-1.045,1.277-.145.29-.319.58-.145.174-.58-.087a1.265,1.265,0,0,1-.435-.348.821.821,0,0,1-.116-.464Q462.134,292.668,462.25,292.639Z" transform="translate(-387.792 -289.592)" fill="#1a1311"/>
    </g>
    <g id="グループ_72723" data-name="グループ 72723" transform="translate(93.834 277.24)">
      <g id="グループ_72722" data-name="グループ 72722">
        <path id="パス_62924" data-name="パス 62924" d="M130.86,291.7h-6.053l5.7-14.463H94.211l5.7,14.463H93.834v7.584h6.446l-6.209,14.465h36.142l-6.148-14.465h6.794Z" transform="translate(-93.834 -277.24)" fill="#fff"/>
        <g id="グループ_72720" data-name="グループ 72720" transform="translate(1.069 15.278)">
          <g id="グループ_72717" data-name="グループ 72717" transform="translate(0 0.401)">
            <path id="パス_62925" data-name="パス 62925" d="M110.578,335.421h-3.985a.159.159,0,0,0-.158.157v2.4a.158.158,0,0,0,.158.156h4.164a.157.157,0,0,0,.158-.156v-2.172A.356.356,0,0,0,110.578,335.421Zm-.962,2.048a.16.16,0,0,1-.16.155h-1.492a.158.158,0,0,1-.158-.155v-1.334a.155.155,0,0,1,.158-.157h1.492a.157.157,0,0,1,.16.157Z" transform="translate(-103.538 -332.787)" fill="#1a1311"/>
            <path id="パス_62926" data-name="パス 62926" d="M104.5,332.181H97.388a.157.157,0,0,0-.158.155v.126a.161.161,0,0,0,.158.162h.79l-.839,3.117a.117.117,0,0,0,.116.153h1.31a.222.222,0,0,0,.2-.153l.839-3.117H104.5a.163.163,0,0,0,.158-.162v-.126A.159.159,0,0,0,104.5,332.181Z" transform="translate(-97.23 -330.567)" fill="#1a1311"/>
            <path id="パス_62927" data-name="パス 62927" d="M104.654,327.757a.7.7,0,0,0-1.406-.045h-1.605a.7.7,0,0,0-1.4,0h-1.6a.7.7,0,0,0-1.406.045v.311a.157.157,0,0,0,.158.157H104.5a.159.159,0,0,0,.158-.157Z" transform="translate(-97.23 -327.053)" fill="#1a1311"/>
          </g>
          <g id="グループ_72718" data-name="グループ 72718" transform="translate(9.111 0.209)">
            <path id="パス_62928" data-name="パス 62928" d="M128.261,328.322a.142.142,0,0,0,.142-.143v-.221a.141.141,0,0,0-.142-.142h-.344v-.506a.583.583,0,1,0-1.166,0v.506h-.432a.141.141,0,0,0-.142.142v.221a.142.142,0,0,0,.142.143h.432v2.8a.248.248,0,0,0,0,.065l-.444.142a.2.2,0,0,0-.135.18v.4a.1.1,0,0,0,.135.1l1.922-.6a.2.2,0,0,0,.135-.18v-.4a.1.1,0,0,0-.135-.1l-.316.1v-2.506Z" transform="translate(-126.177 -326.631)" fill="#1a1311"/>
            <path id="パス_62929" data-name="パス 62929" d="M138.675,326.444a.553.553,0,0,0-.548.472h-2.41a.538.538,0,0,0-.555-.472c-.565,0-.583.655-.583.734v.537a.141.141,0,0,0,.139.138h.883a.143.143,0,0,0,.144-.138v-.364h2.349v.364a.141.141,0,0,0,.14.138h.883a.141.141,0,0,0,.142-.138v-.537C139.258,327.1,139.274,326.444,138.675,326.444Z" transform="translate(-131.934 -326.444)" fill="#1a1311"/>
            <path id="パス_62930" data-name="パス 62930" d="M139,332.782a.142.142,0,0,0,.142-.143v-.253a.143.143,0,0,0-.142-.143h-4.447a.146.146,0,0,0-.144.143v.253a.144.144,0,0,0,.144.143h1.029l-1.041.4a.223.223,0,0,0-.133.193v.29a.091.091,0,0,0,.133.091l1.662-.63v.427l-1.662.63a.224.224,0,0,0-.133.19v.293a.091.091,0,0,0,.133.089l1.662-.626v.416l-1.662.625a.238.238,0,0,0-.133.2v.394a.094.094,0,0,0,.133.094l1.662-.63v.536a.143.143,0,0,0,.142.141h1.213a.143.143,0,0,0,.142-.141v-.566l1.315.63c.07.033.128,0,.128-.083v-.723a.245.245,0,0,0-.128-.2l-1.315-.628v-.169l1.313-.537a.218.218,0,0,0,.13-.19v-.378a.089.089,0,0,0-.13-.089l-1.313.535v-.573Z" transform="translate(-131.817 -330.418)" fill="#1a1311"/>
          </g>
          <g id="グループ_72719" data-name="グループ 72719" transform="translate(18.12 0.056)">
            <path id="パス_62931" data-name="パス 62931" d="M159.027,327.382H157.5v-.349h1.528a.143.143,0,0,0,.142-.141s0-.281,0-.293a.638.638,0,0,0-1.273-.053h-.255a.636.636,0,0,0-1.269,0h-.253a.636.636,0,0,0-.632-.588.658.658,0,0,0-.663.641v.293a.143.143,0,0,0,.142.141h1.39v.349h-1.39a.142.142,0,0,0-.142.141v.154a.145.145,0,0,0,.142.142h1.39v.328h-1.39a.183.183,0,0,0-.163.165l0,.651a.143.143,0,0,0,.144.142h1.022a.14.14,0,0,0,.137-.142v-.206h.246v.224a.138.138,0,0,0,.14.14h.867a.139.139,0,0,0,.142-.14v-.224h.26v.206a.141.141,0,0,0,.142.142h1.02a.143.143,0,0,0,.144-.142v-.408a.381.381,0,0,0-.4-.408H157.5v-.328h1.528a.145.145,0,0,0,.142-.142v-.154A.142.142,0,0,0,159.027,327.382Z" transform="translate(-154.798 -325.957)" fill="#1a1311"/>
            <path id="パス_62932" data-name="パス 62932" d="M170.045,326.148a.541.541,0,0,0-.585.532v1.476a.141.141,0,0,0,.142.146h.876a.142.142,0,0,0,.139-.146v-1.371C170.622,326.767,170.617,326.148,170.045,326.148Z" transform="translate(-164.845 -326.088)" fill="#1a1311"/>
            <path id="パス_62933" data-name="パス 62933" d="M174.711,326.148a.542.542,0,0,0-.585.532v2.408a.141.141,0,0,0,.139.144h.876a.141.141,0,0,0,.142-.144v-2.3C175.286,326.767,175.281,326.148,174.711,326.148Z" transform="translate(-168.042 -326.088)" fill="#1a1311"/>
            <path id="パス_62934" data-name="パス 62934" d="M161.9,335.24h-1.343V334.9c0-.023,0-.641-.574-.641a.545.545,0,0,0-.588.537v.442h-4.443a.143.143,0,0,0-.144.139v.214a.144.144,0,0,0,.144.142h.685l-.809,1.42c-.037.068,0,.123.072.123h1.008a.279.279,0,0,0,.216-.123l.635-1.12.876,1.243h1.317a.3.3,0,0,0,.218-.12l.8-1.2.767,1.2a.293.293,0,0,0,.218.12h.95c.082,0,.107-.056.065-.12l-.908-1.423h.839a.144.144,0,0,0,.142-.142v-.214A.143.143,0,0,0,161.9,335.24Zm-3.507,1.357-.606-.862H158.9Z" transform="translate(-154.804 -331.648)" fill="#1a1311"/>
          </g>
          <path id="パス_62935" data-name="パス 62935" d="M190.657,326.84a.14.14,0,0,0,.142-.137v-.2a.141.141,0,0,0-.142-.139h-1.571a.611.611,0,0,0-.66-.588.619.619,0,0,0-.632.588h-1.441a.623.623,0,0,0-.634-.588.6.6,0,0,0-.656.588h-1.571a.14.14,0,0,0-.139.139v.2a.139.139,0,0,0,.139.137h1.571v.387h-1a.144.144,0,0,0-.144.141V329.1a.144.144,0,0,0,.144.139h2.382v.425h-2.954a.143.143,0,0,0-.139.147V330a.14.14,0,0,0,.139.142h1.134l-1.223,1.217c-.055.06-.037.1.042.1h1.3a.463.463,0,0,0,.248-.093l1.448-1.229h0v1.18a.144.144,0,0,0,.142.142h1.062a.147.147,0,0,0,.144-.142v-1.1l1.353,1.15a.476.476,0,0,0,.251.093h1.3c.079,0,.1-.044.044-.1l-1.222-1.217h1.136A.141.141,0,0,0,190.8,330v-.188a.144.144,0,0,0-.142-.147h-2.863v-.425h2.33a.142.142,0,0,0,.14-.139v-1.337a.484.484,0,0,0-.507-.539h-.671v-.387Zm-4.21,1.97h-1.22v-.4h1.22Zm0-.813h-1.22v-.347h1.22Zm1.336-.77h-1.417v-.387h1.417Zm1.178,1.583h-1.166v-.4h1.166Zm0-.813h-1.166v-.347h1.166Z" transform="translate(-156.246 -325.78)" fill="#1a1311"/>
        </g>
        <g id="グループ_72721" data-name="グループ 72721" transform="translate(2.489 1.481)">
          <path id="パス_62936" data-name="パス 62936" d="M108.29,286.262l4.575,11.623h18.793l4.578-11.623Zm14.086,3.554A5.063,5.063,0,0,1,118.488,288h7.773A5.059,5.059,0,0,1,122.376,289.816Z" transform="translate(-106.229 -284.903)" fill="#dc000c"/>
          <path id="パス_62937" data-name="パス 62937" d="M102.68,283.8l4.382,11.126h.371l-4.429-11.254-.546-1.379h30.914l-.544,1.379L128.4,294.927h.376l4.382-11.126.637-1.618.093-.238H101.948l.1.238Z" transform="translate(-101.883 -281.946)" fill="#dc000c"/>
          <path id="パス_62938" data-name="パス 62938" d="M132.586,358.375l-4.714-11.091h-.379l4.773,11.226.6,1.4h-30.6l.6-1.4,4.817-11.226h-.377l-4.761,11.091-.706,1.648-.1.239H133.39l-.1-.239Z" transform="translate(-101.742 -326.719)" fill="#dc000c"/>
          <path id="パス_62939" data-name="パス 62939" d="M135.825,358.908l-4.942-11.623H113.276l-4.986,11.623Z" transform="translate(-106.229 -326.719)" fill="#dc000c"/>
        </g>
      </g>
    </g>
    <line id="線_1674" data-name="線 1674" x2="74.67" transform="translate(225.601 283.213)" fill="#1a1311" stroke="#1a1311" stroke-linecap="round" stroke-linejoin="round" stroke-width="0.5"/>
    <path id="パス_62940" data-name="パス 62940" d="M221.454,313.108a1.782,1.782,0,0,1,1.754,1.711H227.2a1.755,1.755,0,0,1,3.508,0h4a1.755,1.755,0,1,1,3.508.119v.792a.408.408,0,0,1-.392.417H220.091a.415.415,0,0,1-.4-.417v-.792a1.8,1.8,0,0,1,1.763-1.831m27.6-.494a1.353,1.353,0,0,1,1.388,1.209h6.02a1.378,1.378,0,0,1,1.362-1.209c1.5,0,1.456,1.7,1.456,1.9V315.9a.365.365,0,0,1-.358.358H256.72a.358.358,0,0,1-.349-.358v-.937h-5.849v.937a.367.367,0,0,1-.366.358h-2.2a.36.36,0,0,1-.358-.358v-1.388c0-.2.043-1.9,1.456-1.9m106.464-.043a1.345,1.345,0,0,0-1.422,1.1l-7.467,1.482a.3.3,0,0,0-.238.111.373.373,0,0,0-.111.264v1.6a.372.372,0,0,0,.111.264.3.3,0,0,0,.238.111l8.914-1.788c.094,0,8.915,1.788,8.915,1.788a.349.349,0,0,0,.247-.111.448.448,0,0,0,.094-.264v-1.6a.448.448,0,0,0-.094-.264.349.349,0,0,0-.247-.111l-7.6-1.516a1.309,1.309,0,0,0-1.337-1.064m-80.5-.2a1.389,1.389,0,0,0-1.456,1.38v3.823a.364.364,0,0,0,.358.375h2.188a.357.357,0,0,0,.349-.375v-3.551c.008-.051,0-1.652-1.439-1.652m71.606,6.326a.311.311,0,0,0-.238.119.358.358,0,0,0-.111.264v.7a.378.378,0,0,0,.111.272.325.325,0,0,0,.238.1h17.8a.341.341,0,0,0,.238-.1.372.372,0,0,0,.1-.272v-.7a.352.352,0,0,0-.1-.264.326.326,0,0,0-.238-.119h-17.8M278.7,312.367a1.382,1.382,0,0,0-1.456,1.38v6.241a.36.36,0,0,0,.349.366h2.188a.362.362,0,0,0,.358-.366v-5.969c0-.051-.008-1.652-1.439-1.652m-14.934-.145a1.608,1.608,0,0,1,1.584,1.516h.639a1.581,1.581,0,0,1,3.159,0h.638a1.6,1.6,0,0,1,1.584-1.516,1.625,1.625,0,0,1,1.592,1.652l.008.758a.362.362,0,0,1-.358.366h-3.815v.9h3.815a.369.369,0,0,1,.358.375v.383a.356.356,0,0,1-.358.366h-3.815v.851h2.921a.967.967,0,0,1,.988,1.064V320a.355.355,0,0,1-.349.366h-2.546a.362.362,0,0,1-.358-.366v-.528h-.656v.57a.362.362,0,0,1-.349.375H266.29a.362.362,0,0,1-.349-.375v-.57h-.613V320a.362.362,0,0,1-.358.366h-2.546a.36.36,0,0,1-.349-.366l-.008-1.694a.463.463,0,0,1,.4-.426h3.474v-.851h-3.474a.35.35,0,0,1-.349-.366v-.383a.362.362,0,0,1,.349-.375h3.474V315h-3.474a.355.355,0,0,1-.349-.366v-.758a1.669,1.669,0,0,1,1.643-1.652m71.292,5.935a.345.345,0,0,1,.247.1.361.361,0,0,1,.1.255v1.124a.367.367,0,0,1-.1.264.346.346,0,0,1-.247.1H332.38v3.7l2.674-.315a.322.322,0,0,1,.247.111.353.353,0,0,1,.1.264v1.115a.362.362,0,0,1-.1.256.346.346,0,0,1-.247.1l-9.289,1.124a.291.291,0,0,1-.239-.11.334.334,0,0,1-.1-.256v-1.115a.35.35,0,0,1,.341-.366l3.355-.409V320h-3.355a.342.342,0,0,1-.239-.1.367.367,0,0,1-.1-.264v-1.124a.361.361,0,0,1,.1-.255.341.341,0,0,1,.239-.1h9.289M243.9,312.844a1.491,1.491,0,0,1,1.448,1.524v1.311h.868a.355.355,0,0,1,.349.366v.571a.362.362,0,0,1-.349.375h-.868v6.488l.792-.264a.247.247,0,0,1,.136-.009.251.251,0,0,1,.2.273V324.5a.54.54,0,0,1-.341.485l-4.785,1.533a.986.986,0,0,1-.136.017.255.255,0,0,1-.2-.272v-1.022a.539.539,0,0,1,.341-.485l1.107-.349-.017-.17v-7.246H241.36a.368.368,0,0,1-.349-.375v-.571a.36.36,0,0,1,.349-.366h1.081v-1.311a1.5,1.5,0,0,1,1.456-1.524m27.119,12.184,1.268-2.231H269.5l1.516,2.231m3.968-6.045a1.394,1.394,0,0,0-1.465,1.388v1.141H262.425a.36.36,0,0,0-.349.366v.554a.366.366,0,0,0,.349.366h1.712l-2.01,3.678a.192.192,0,0,0,.179.315h2.529a.67.67,0,0,0,.519-.315l1.592-2.9,2.188,3.219h3.278a.77.77,0,0,0,.553-.3l1.975-3.108,1.916,3.1a.709.709,0,0,0,.553.307h2.367c.2,0,.264-.136.162-.307l-2.273-3.687h2.094a.367.367,0,0,0,.358-.366v-.554a.362.362,0,0,0-.358-.366h-3.355v-.86c.009-.051,0-1.669-1.422-1.669m13.989-6.922a1.608,1.608,0,0,1,1.584,1.524h3.584a1.6,1.6,0,0,1,1.584-1.524,1.559,1.559,0,0,1,1.643,1.524h3.925a.362.362,0,0,1,.349.375v.494a.36.36,0,0,1-.349.366h-3.925v1h1.669a1.239,1.239,0,0,1,1.268,1.4v3.457a.368.368,0,0,1-.349.375h-5.815v1.1h7.152a.366.366,0,0,1,.349.366v.5a.358.358,0,0,1-.349.358h-2.844l3.048,3.167c.136.145.094.256-.1.256h-3.253a1.063,1.063,0,0,1-.621-.239l-3.38-2.98v2.853a.356.356,0,0,1-.358.366h-2.648a.355.355,0,0,1-.349-.366v-3.057h-.017l-3.6,3.184a1.043,1.043,0,0,1-.622.239h-3.253c-.2,0-.238-.111-.1-.256l3.048-3.167h-2.827a.358.358,0,0,1-.349-.358v-.5a.366.366,0,0,1,.349-.366h7.373v-1.1h-5.943a.371.371,0,0,1-.366-.375v-4.5a.367.367,0,0,1,.366-.358h2.486v-1h-3.917a.36.36,0,0,1-.349-.366v-.494a.362.362,0,0,1,.349-.375h3.917a1.559,1.559,0,0,1,1.643-1.524m1.6,2.759v1h3.542v-1h-3.542m-2.835,2.095v.9h3.048v-.9h-3.048m6.4,0v.9h2.921v-.9h-2.921m-6.4,1.975v1.031h3.048v-1.031h-3.048m6.4,0v1.031h2.921v-1.031h-2.921m15.241,7.62a.282.282,0,0,1-.273.281h-2.392a.276.276,0,0,1-.273-.281v-3.389l-1.78,2.248c-.11.145-.2.1-.2-.076v-4a1.088,1.088,0,0,1,.2-.588l1.78-2.256v-1.618h-1.618a.4.4,0,0,1-.255-.1.445.445,0,0,1-.085-.264v-.715a.439.439,0,0,1,.085-.256.361.361,0,0,1,.255-.1h1.618v-1.413a1.475,1.475,0,1,1,2.946,0l-.008,1.413H310.4a.341.341,0,0,1,.247.1.4.4,0,0,1,.1.256v.715a.4.4,0,0,1-.1.264.378.378,0,0,1-.247.1h-1.013v.119l1.158,1.456a1.21,1.21,0,0,1,.2.6v4c0,.179-.094.213-.2.068l-1.158-1.456v4.9m-50.457-9.162a.362.362,0,0,1,.358.366v.664a.362.362,0,0,1-.358.366h-3.244v1.464l3.269-1.371a.176.176,0,0,1,.128-.026c.119,0,.2.094.2.255v.971a.565.565,0,0,1-.332.5l-3.269,1.38v.443l3.278,1.626a.647.647,0,0,1,.323.528V326.4c0,.145-.085.239-.2.239a.705.705,0,0,1-.128-.034l-3.278-1.635v1.473a.362.362,0,0,1-.358.366H252.3a.354.354,0,0,1-.349-.366v-1.388l-4.147,1.626a.378.378,0,0,1-.128.017.238.238,0,0,1-.2-.255v-1.03a.589.589,0,0,1,.332-.494l4.147-1.618v-1.09l-4.147,1.626a.422.422,0,0,1-.128.026.236.236,0,0,1-.2-.264v-.749a.579.579,0,0,1,.332-.494l4.147-1.635v-1.1l-4.147,1.635a.891.891,0,0,1-.128.017.247.247,0,0,1-.2-.264v-.749a.591.591,0,0,1,.332-.5l2.6-1.013h-2.571a.367.367,0,0,1-.358-.366v-.664a.367.367,0,0,1,.358-.366h11.094m53.769-4.921a1.513,1.513,0,0,1,1.473,1.55v.341h1.371v-.341a1.475,1.475,0,1,1,2.946,0v.341h1.3v-.341a1.479,1.479,0,1,1,2.955,0l-.009,1.413a.425.425,0,0,1-.1.264.391.391,0,0,1-.238.111h-3.917v1.89h3.917a.316.316,0,0,1,.238.111.389.389,0,0,1,.1.264v.707a.444.444,0,0,1-.1.264.342.342,0,0,1-.238.1h-1.524l2.222,7.416a.286.286,0,0,1-.281.29h-2.222a.285.285,0,0,1-.281-.29l-1.831-6.1v6.088a.278.278,0,0,1-.281.281H315.81a.283.283,0,0,1-.281-.281V320.26l-1.873,6.258a.285.285,0,0,1-.281.29h-2.231a.277.277,0,0,1-.264-.29l2.205-7.416h-1.541a.343.343,0,0,1-.239-.1.4.4,0,0,1-.1-.264v-.707a.353.353,0,0,1,.1-.264.317.317,0,0,1,.239-.111h3.985v-1.89h-3.985a.392.392,0,0,1-.239-.111.381.381,0,0,1-.1-.264l.017-1.413a1.508,1.508,0,0,1,1.473-1.55m24.249-.017a1.7,1.7,0,0,1,1.6,1.141l.332.886h1.856v-.647A1.39,1.39,0,0,1,342.2,312.4c1.422,0,1.439,1.609,1.431,1.66l.009,1.456a.34.34,0,0,1-.094.247.331.331,0,0,1-.247.11h-3.883l3.925,10.49a.342.342,0,0,1-.179.426h-2.937a.422.422,0,0,1-.128.025.357.357,0,0,1-.3-.213l-4-10.728h-10.03a.291.291,0,0,1-.239-.11.316.316,0,0,1-.1-.247V314.8a.334.334,0,0,1,.1-.256.318.318,0,0,1,.239-.11h9.545a1.762,1.762,0,0,1,1.047-1.907,1.4,1.4,0,0,1,.588-.119m-116.852,4.87a.413.413,0,0,0-.392.417v.324a.4.4,0,0,0,.392.409h1.975l-2.094,8.072a.293.293,0,0,0,.3.392h3.261a.553.553,0,0,0,.5-.392l2.069-8.072h11.724a.4.4,0,0,0,.392-.409V317.7a.413.413,0,0,0-.392-.417H220.091m144.345,3.976a.325.325,0,0,1,.238.119.333.333,0,0,1,.1.256v.715a.346.346,0,0,1-.1.256.309.309,0,0,1-.238.1H354.1l-1.805,2.776h7.263l-.809-1.175c-.1-.153-.034-.281.136-.281h3.951a.676.676,0,0,1,.494.281l1.448,2.274a.327.327,0,0,1-.1.247.317.317,0,0,1-.238.111h-17.8a.3.3,0,0,1-.238-.111.334.334,0,0,1-.111-.247v-.715a.358.358,0,0,1,.111-.264.31.31,0,0,1,.238-.119h1.081l1.814-2.776h-2.895a.3.3,0,0,1-.238-.1.354.354,0,0,1-.111-.256v-.715a.34.34,0,0,1,.111-.256.311.311,0,0,1,.238-.119h17.8m7.595-8.974a1.767,1.767,0,0,1,1.694,1.822v.417l1.558-.017a1.235,1.235,0,0,1,1.2,1.26,1.284,1.284,0,0,1-.468,1l-2.086,2.026,1.49,1.456a.846.846,0,0,1,.238.562v3.142a.213.213,0,0,1-.068.17h-.077a.345.345,0,0,1-.094-.06l-1.695-1.652-.008,4.2a.333.333,0,0,1-.324.341h-2.75a.34.34,0,0,1-.332-.341l.008-4.99-2.512,2.426c-.034.025-.068.051-.094.068h-.076a.19.19,0,0,1-.068-.17v-2.852a.931.931,0,0,1,.239-.571l2.52-2.435,1.788-1.805h-4.062a.327.327,0,0,1-.247-.1.4.4,0,0,1-.1-.272V314.9a.38.38,0,0,1,.1-.264.335.335,0,0,1,.247-.111h2.273V314.1a1.775,1.775,0,0,1,1.7-1.822m-141.3,9.085a.4.4,0,0,0-.392.409v3.448a.408.408,0,0,0,.392.417h3.73a.415.415,0,0,0,.4-.417v-3.448a.407.407,0,0,0-.4-.409h-3.73m-3.406-1.439a.407.407,0,0,0-.4.409v6.207a.4.4,0,0,0,.4.409h10.379a.4.4,0,0,0,.392-.409v-5.619a.91.91,0,0,0-.834-1h-9.936m154.035-7.638a1.767,1.767,0,0,0-1.7,1.814v2.92h-2.938a.306.306,0,0,0-.247.111.339.339,0,0,0-.111.255v1a.345.345,0,0,0,.111.264.314.314,0,0,0,.247.119h2.938l-.009,6.7h-2.759a.316.316,0,0,0-.238.111.387.387,0,0,0-.1.272v.724a.367.367,0,0,0,.1.264.316.316,0,0,0,.238.111h8.974a.317.317,0,0,0,.239-.111.366.366,0,0,0,.1-.264v-.724a.387.387,0,0,0-.1-.272.317.317,0,0,0-.239-.111h-2.81l.009-6.7h2.963a.349.349,0,0,0,.264-.119.369.369,0,0,0,.094-.264v-1a.362.362,0,0,0-.094-.255.341.341,0,0,0-.264-.111h-2.963V314.1a1.767,1.767,0,0,0-1.7-1.814" transform="translate(-86.243 -23.861)" fill="#1a1311" fill-rule="evenodd"/>
  </g>
</svg>
