<svg id="Twitterのアイコン素材_2" data-name="Twitterのアイコン素材 2" xmlns="http://www.w3.org/2000/svg" width="24.77" height="24.77" viewBox="0 0 24.77 24.77">
  <path id="パス_908" data-name="パス 908" d="M12.385,0A12.385,12.385,0,1,0,24.77,12.385,12.384,12.384,0,0,0,12.385,0Zm.282,10.775h.008a2.586,2.586,0,0,1-.07-.6A2.651,2.651,0,0,1,17.192,8.36a5.292,5.292,0,0,0,1.4-.493c.094-.047.188-.094.28-.146a2.644,2.644,0,0,1-.85,1.232,2.462,2.462,0,0,1-.313.219l.014,0-.014.01a5.266,5.266,0,0,0,1.244-.3c.09-.032.181-.064.27-.1a5.367,5.367,0,0,1-1.317,1.361c.008.116.008.228.008.344A7.539,7.539,0,0,1,6.309,16.832a5.693,5.693,0,0,0,.635.039,5.3,5.3,0,0,0,2.5-.626l.048-.024c.048-.026.093-.055.14-.083a5.547,5.547,0,0,0,.6-.4h-.009l.009-.007A2.621,2.621,0,0,1,7.761,13.9a2.552,2.552,0,0,0,1-.008c.063-.01.126-.018.189-.031l-.014,0,.016,0a2.653,2.653,0,0,1-2.129-2.6v-.031a2.654,2.654,0,0,0,.927.3c.09.014.181.025.273.031l-.01-.008h.014a2.633,2.633,0,0,1-.906-3.366c.029-.056.055-.114.088-.169a7.512,7.512,0,0,0,5.379,2.758c.026,0,.051.007.077.008Z" fill="#444"/>
</svg>
